  0
SECTION
  2
HEADER
  9
$ACADVER
  1
AC1032
  9
$ACADMAINTVER
 90
        4
  9
$DWGCODEPAGE
  3
ANSI_1252
  9
$LASTSAVEDBY
  1
rjcanova
  9
$REQUIREDVERSIONS
160
                 0
  9
$INSBASE
 10
0.0
 20
0.0
 30
0.0
  9
$EXTMIN
 10
9.469318932087399
 20
-9.6405663112407
 30
0.0
  9
$EXTMAX
 10
28.1693189320874
 20
-2.940914025366692
 30
0.0
  9
$LIMMIN
 10
0.0
 20
0.0
  9
$LIMMAX
 10
12.0
 20
9.0
  9
$ORTHOMODE
 70
     1
  9
$REGENMODE
 70
     1
  9
$FILLMODE
 70
     1
  9
$QTEXTMODE
 70
     0
  9
$MIRRTEXT
 70
     1
  9
$LTSCALE
 40
1.0
  9
$ATTMODE
 70
     1
  9
$TEXTSIZE
 40
0.2
  9
$TRACEWID
 40
0.05
  9
$TEXTSTYLE
  7
STANDARD
  9
$CLAYER
  8
Footprint
  9
$CELTYPE
  6
BYBLOCK
  9
$CECOLOR
 62
   256
  9
$CELTSCALE
 40
1.0
  9
$DISPSILH
 70
     0
  9
$DIMSCALE
 40
1.0
  9
$DIMASZ
 40
0.18
  9
$DIMEXO
 40
0.0625
  9
$DIMDLI
 40
0.38
  9
$DIMRND
 40
0.0
  9
$DIMDLE
 40
0.0
  9
$DIMEXE
 40
0.18
  9
$DIMTP
 40
0.0
  9
$DIMTM
 40
0.0
  9
$DIMTXT
 40
0.18
  9
$DIMCEN
 40
0.09
  9
$DIMTSZ
 40
0.0
  9
$DIMTOL
 70
     0
  9
$DIMLIM
 70
     0
  9
$DIMTIH
 70
     1
  9
$DIMTOH
 70
     1
  9
$DIMSE1
 70
     0
  9
$DIMSE2
 70
     0
  9
$DIMTAD
 70
     0
  9
$DIMZIN
 70
     0
  9
$DIMBLK
  1

  9
$DIMASO
 70
     1
  9
$DIMSHO
 70
     1
  9
$DIMPOST
  1

  9
$DIMAPOST
  1

  9
$DIMALT
 70
     0
  9
$DIMALTD
 70
     2
  9
$DIMALTF
 40
25.4
  9
$DIMLFAC
 40
1.0
  9
$DIMTOFL
 70
     0
  9
$DIMTVP
 40
0.0
  9
$DIMTIX
 70
     0
  9
$DIMSOXD
 70
     0
  9
$DIMSAH
 70
     0
  9
$DIMBLK1
  1

  9
$DIMBLK2
  1

  9
$DIMSTYLE
  2
STANDARD
  9
$DIMCLRD
 70
     0
  9
$DIMCLRE
 70
     0
  9
$DIMCLRT
 70
     0
  9
$DIMTFAC
 40
1.0
  9
$DIMGAP
 40
0.09
  9
$DIMJUST
 70
     0
  9
$DIMSD1
 70
     0
  9
$DIMSD2
 70
     0
  9
$DIMTOLJ
 70
     1
  9
$DIMTZIN
 70
     0
  9
$DIMALTZ
 70
     0
  9
$DIMALTTZ
 70
     0
  9
$DIMUPT
 70
     0
  9
$DIMDEC
 70
     4
  9
$DIMTDEC
 70
     4
  9
$DIMALTU
 70
     2
  9
$DIMALTTD
 70
     2
  9
$DIMTXSTY
  7
STANDARD
  9
$DIMAUNIT
 70
     0
  9
$DIMADEC
 70
     0
  9
$DIMALTRND
 40
0.0
  9
$DIMAZIN
 70
     0
  9
$DIMDSEP
 70
    46
  9
$DIMATFIT
 70
     3
  9
$DIMFRAC
 70
     0
  9
$DIMLDRBLK
  1

  9
$DIMLUNIT
 70
     2
  9
$DIMLWD
 70
    -2
  9
$DIMLWE
 70
    -2
  9
$DIMTMOVE
 70
     2
  9
$DIMFXL
 40
1.0
  9
$DIMFXLON
 70
     0
  9
$DIMJOGANG
 40
0.7853981633974483
  9
$DIMTFILL
 70
     0
  9
$DIMTFILLCLR
 70
     0
  9
$DIMARCSYM
 70
     0
  9
$DIMLTYPE
  6

  9
$DIMLTEX1
  6

  9
$DIMLTEX2
  6

  9
$DIMTXTDIRECTION
 70
     0
  9
$LUNITS
 70
     2
  9
$LUPREC
 70
     4
  9
$SKETCHINC
 40
0.1
  9
$FILLETRAD
 40
0.0
  9
$AUNITS
 70
     0
  9
$AUPREC
 70
     0
  9
$MENU
  1
.
  9
$ELEVATION
 40
0.0
  9
$PELEVATION
 40
0.0
  9
$THICKNESS
 40
0.0
  9
$LIMCHECK
 70
     0
  9
$CHAMFERA
 40
0.0
  9
$CHAMFERB
 40
0.0
  9
$CHAMFERC
 40
0.0
  9
$CHAMFERD
 40
0.0
  9
$SKPOLY
 70
     0
  9
$TDCREATE
 40
2447892.708333322
  9
$TDUCREATE
 40
2447892.999999988
  9
$TDUPDATE
 40
2460075.542266262
  9
$TDUUPDATE
 40
2460075.833932928
  9
$TDINDWG
 40
0.0547642593
  9
$TDUSRTIMER
 40
0.0001389931
  9
$USRTIMER
 70
     1
  9
$ANGBASE
 50
0.0
  9
$ANGDIR
 70
     0
  9
$PDMODE
 70
     3
  9
$PDSIZE
 40
-5.0
  9
$PLINEWID
 40
0.0
  9
$SPLFRAME
 70
     0
  9
$SPLINETYPE
 70
     6
  9
$SPLINESEGS
 70
     8
  9
$HANDSEED
  5
109CF
  9
$SURFTAB1
 70
     6
  9
$SURFTAB2
 70
     6
  9
$SURFTYPE
 70
     6
  9
$SURFU
 70
     6
  9
$SURFV
 70
     6
  9
$UCSBASE
  2

  9
$UCSNAME
  2

  9
$UCSORG
 10
0.0
 20
0.0
 30
0.0
  9
$UCSXDIR
 10
1.0
 20
0.0
 30
0.0
  9
$UCSYDIR
 10
0.0
 20
1.0
 30
0.0
  9
$UCSORTHOREF
  2

  9
$UCSORTHOVIEW
 70
     0
  9
$UCSORGTOP
 10
0.0
 20
0.0
 30
0.0
  9
$UCSORGBOTTOM
 10
0.0
 20
0.0
 30
0.0
  9
$UCSORGLEFT
 10
0.0
 20
0.0
 30
0.0
  9
$UCSORGRIGHT
 10
0.0
 20
0.0
 30
0.0
  9
$UCSORGFRONT
 10
0.0
 20
0.0
 30
0.0
  9
$UCSORGBACK
 10
0.0
 20
0.0
 30
0.0
  9
$PUCSBASE
  2

  9
$PUCSNAME
  2

  9
$PUCSORG
 10
0.0
 20
0.0
 30
0.0
  9
$PUCSXDIR
 10
1.0
 20
0.0
 30
0.0
  9
$PUCSYDIR
 10
0.0
 20
1.0
 30
0.0
  9
$PUCSORTHOREF
  2

  9
$PUCSORTHOVIEW
 70
     0
  9
$PUCSORGTOP
 10
0.0
 20
0.0
 30
0.0
  9
$PUCSORGBOTTOM
 10
0.0
 20
0.0
 30
0.0
  9
$PUCSORGLEFT
 10
0.0
 20
0.0
 30
0.0
  9
$PUCSORGRIGHT
 10
0.0
 20
0.0
 30
0.0
  9
$PUCSORGFRONT
 10
0.0
 20
0.0
 30
0.0
  9
$PUCSORGBACK
 10
0.0
 20
0.0
 30
0.0
  9
$USERI1
 70
     0
  9
$USERI2
 70
     0
  9
$USERI3
 70
     0
  9
$USERI4
 70
     0
  9
$USERI5
 70
     0
  9
$USERR1
 40
0.0
  9
$USERR2
 40
0.0
  9
$USERR3
 40
0.0
  9
$USERR4
 40
0.0
  9
$USERR5
 40
0.0
  9
$WORLDVIEW
 70
     1
  9
$SHADEDGE
 70
     3
  9
$SHADEDIF
 70
    70
  9
$TILEMODE
 70
     1
  9
$MAXACTVP
 70
    64
  9
$PINSBASE
 10
0.0
 20
0.0
 30
0.0
  9
$PLIMCHECK
 70
     0
  9
$PEXTMIN
 10
1.000000000000000E+20
 20
1.000000000000000E+20
 30
1.000000000000000E+20
  9
$PEXTMAX
 10
-1.000000000000000E+20
 20
-1.000000000000000E+20
 30
-1.000000000000000E+20
  9
$PLIMMIN
 10
0.0
 20
0.0
  9
$PLIMMAX
 10
0.0
 20
0.0
  9
$UNITMODE
 70
     0
  9
$VISRETAIN
 70
     1
  9
$PLINEGEN
 70
     0
  9
$PSLTSCALE
 70
     1
  9
$TREEDEPTH
 70
  3020
  9
$CMLSTYLE
  2
STANDARD
  9
$CMLJUST
 70
     0
  9
$CMLSCALE
 40
1.0
  9
$PROXYGRAPHICS
 70
     1
  9
$MEASUREMENT
 70
     0
  9
$CELWEIGHT
370
    -1
  9
$ENDCAPS
280
     0
  9
$JOINSTYLE
280
     0
  9
$LWDISPLAY
290
     0
  9
$INSUNITS
 70
     0
  9
$HYPERLINKBASE
  1

  9
$STYLESHEET
  1

  9
$XEDIT
290
     1
  9
$CEPSNTYPE
380
     0
  9
$PSTYLEMODE
290
     1
  9
$FINGERPRINTGUID
  2
{7037953b-1e4d-419a-a7db-9851a3a1ad45}
  9
$VERSIONGUID
  2
{FAEB1C32-E019-11D5-929B-00C0DF256EC4}
  9
$EXTNAMES
290
     1
  9
$PSVPSCALE
 40
0.0
  9
$OLESTARTUP
290
     0
  9
$SORTENTS
280
   127
  9
$INDEXCTL
280
     0
  9
$HIDETEXT
280
     1
  9
$XCLIPFRAME
280
     2
  9
$HALOGAP
280
     0
  9
$OBSCOLOR
 70
   257
  9
$OBSLTYPE
280
     0
  9
$INTERSECTIONDISPLAY
280
     0
  9
$INTERSECTIONCOLOR
 70
   257
  9
$DIMASSOC
280
     2
  9
$PROJECTNAME
  1

  9
$CAMERADISPLAY
290
     0
  9
$LENSLENGTH
 40
50.0
  9
$CAMERAHEIGHT
 40
0.0
  9
$STEPSPERSEC
 40
2.0
  9
$STEPSIZE
 40
6.0
  9
$3DDWFPREC
 40
2.0
  9
$PSOLWIDTH
 40
0.25
  9
$PSOLHEIGHT
 40
4.0
  9
$LOFTANG1
 40
1.570796326794897
  9
$LOFTANG2
 40
1.570796326794897
  9
$LOFTMAG1
 40
0.0
  9
$LOFTMAG2
 40
0.0
  9
$LOFTPARAM
 70
     7
  9
$LOFTNORMALS
280
     1
  9
$LATITUDE
 40
37.795
  9
$LONGITUDE
 40
-122.394
  9
$NORTHDIRECTION
 40
0.0
  9
$TIMEZONE
 70
 -8000
  9
$LIGHTGLYPHDISPLAY
280
     1
  9
$TILEMODELIGHTSYNCH
280
     1
  9
$SOLIDHIST
280
     0
  9
$SHOWHIST
280
     1
  9
$DWFFRAME
280
     2
  9
$DGNFRAME
280
     2
  9
$REALWORLDSCALE
290
     1
  9
$INTERFERECOLOR
 62
   256
  9
$CSHADOW
280
     0
  9
$SHADOWPLANELOCATION
 40
0.0
  0
ENDSEC
  0
SECTION
  2
CLASSES
  0
CLASS
  1
ACDBDICTIONARYWDFLT
  2
AcDbDictionaryWithDefault
  3
ObjectDBX Classes
 90
        0
 91
        3
280
     0
281
     0
  0
CLASS
  1
SCALE
  2
AcDbScale
  3
ObjectDBX Classes
 90
     1153
 91
        3
280
     0
281
     0
  0
CLASS
  1
MATERIAL
  2
AcDbMaterial
  3
ObjectDBX Classes
 90
     1153
 91
        3
280
     0
281
     0
  0
CLASS
  1
VISUALSTYLE
  2
AcDbVisualStyle
  3
ObjectDBX Classes
 90
     4095
 91
        3
280
     0
281
     0
  0
CLASS
  1
TABLESTYLE
  2
AcDbTableStyle
  3
ObjectDBX Classes
 90
     4095
 91
        3
280
     0
281
     0
  0
CLASS
  1
MLEADERSTYLE
  2
AcDbMLeaderStyle
  3
ACDB_MLEADERSTYLE_CLASS
 90
     4095
 91
        3
280
     0
281
     0
  0
CLASS
  1
XRECORD
  2
AcDbXrecord
  3
ObjectDBX Classes
 90
        0
 91
        1
280
     0
281
     0
  0
CLASS
  1
LWPOLYLINE
  2
AcDbPolyline
  3
ObjectDBX Classes
 90
        0
 91
        1
280
     0
281
     1
  0
CLASS
  1
HATCH
  2
AcDbHatch
  3
ObjectDBX Classes
 90
        0
 91
        1
280
     0
281
     1
  0
CLASS
  1
DICTIONARYVAR
  2
AcDbDictionaryVar
  3
ObjectDBX Classes
 90
        0
 91
        3
280
     0
281
     0
  0
CLASS
  1
SUN
  2
AcDbSun
  3
SCENEOE
 90
     1153
 91
        3
280
     0
281
     0
  0
CLASS
  1
SORTENTSTABLE
  2
AcDbSortentsTable
  3
ObjectDBX Classes
 90
        0
 91
        3
280
     0
281
     0
  0
CLASS
  1
CELLSTYLEMAP
  2
AcDbCellStyleMap
  3
ObjectDBX Classes
 90
     1152
 91
        3
280
     0
281
     0
  0
ENDSEC
  0
SECTION
  2
TABLES
  0
TABLE
  2
VPORT
  5
8
330
0
100
AcDbSymbolTable
 70
     1
  0
VPORT
  5
10001
330
8
100
AcDbSymbolTableRecord
100
AcDbViewportTableRecord
  2
*ACTIVE
 70
     0
 10
0.0
 20
0.0
 11
1.0
 21
1.0
 12
18.98644277517771
 22
-5.919660428609099
 13
0.0
 23
0.0
 14
0.5
 24
0.5
 15
0.5
 25
0.5
 16
0.0
 26
0.0
 36
1.0
 17
0.0
 27
0.0
 37
0.0
 40
11.24999999999998
 41
3.143824027072758
 42
50.0
 43
0.0
 44
0.0
 50
0.0
 51
0.0
 71
    16
 72
   100
 73
     1
 74
     2
 75
     0
 76
     0
 77
     0
 78
     0
281
     0
 65
     1
110
0.0
120
0.0
130
0.0
111
1.0
121
0.0
131
0.0
112
0.0
122
1.0
132
0.0
 79
     0
146
0.0
348
1007B
 60
     3
 61
     5
292
     1
282
     1
141
0.0
142
0.0
 63
   256
361
1014D
  0
ENDTAB
  0
TABLE
  2
LTYPE
  5
5
330
0
100
AcDbSymbolTable
 70
     1
  0
LTYPE
  5
14
330
5
100
AcDbSymbolTableRecord
100
AcDbLinetypeTableRecord
  2
BYBLOCK
 70
     0
  3

 72
    65
 73
     0
 40
0.0
  0
LTYPE
  5
15
330
5
100
AcDbSymbolTableRecord
100
AcDbLinetypeTableRecord
  2
BYLAYER
 70
     0
  3
Solid line
 72
    65
 73
     0
 40
0.0
  0
LTYPE
  5
FFFF
330
5
100
AcDbSymbolTableRecord
100
AcDbLinetypeTableRecord
  2
CONTINUOUS
 70
     0
  3
Solid line
 72
    65
 73
     0
 40
0.0
  0
ENDTAB
  0
TABLE
  2
LAYER
  5
2
102
{ACAD_XDICTIONARY
360
1009E
102
}
330
0
100
AcDbSymbolTable
 70
     3
  0
LAYER
  5
50
330
2
100
AcDbSymbolTableRecord
100
AcDbLayerTableRecord
  2
0
 70
     0
 62
     7
  6
CONTINUOUS
370
    -3
390
10050
347
10092
348
0
  0
LAYER
  5
100A1
330
2
100
AcDbSymbolTableRecord
100
AcDbLayerTableRecord
  2
Original
 70
     0
 62
     5
  6
CONTINUOUS
370
    -3
390
10050
347
10092
348
0
1001
AcAecLayerStandard
1000

1000

  0
LAYER
  5
10141
330
2
100
AcDbSymbolTableRecord
100
AcDbLayerTableRecord
  2
Footprint
 70
     0
 62
     7
  6
CONTINUOUS
370
    -3
390
10050
347
10092
348
0
1001
AcAecLayerStandard
1000

1000

  0
ENDTAB
  0
TABLE
  2
STYLE
  5
3
330
0
100
AcDbSymbolTable
 70
     1
  0
STYLE
  5
11
330
3
100
AcDbSymbolTableRecord
100
AcDbTextStyleTableRecord
  2
STANDARD
 70
     0
 40
0.2
 41
1.0
 50
0.0
 71
     0
 42
0.2
  3

  4

  0
ENDTAB
  0
TABLE
  2
VIEW
  5
6
330
0
100
AcDbSymbolTable
 70
     0
  0
ENDTAB
  0
TABLE
  2
UCS
  5
7
330
0
100
AcDbSymbolTable
 70
     0
  0
ENDTAB
  0
TABLE
  2
APPID
  5
9
330
0
100
AcDbSymbolTable
 70
     3
  0
APPID
  5
12
330
9
100
AcDbSymbolTableRecord
100
AcDbRegAppTableRecord
  2
ACAD
 70
     0
  0
APPID
  5
100A2
330
9
100
AcDbSymbolTableRecord
100
AcDbRegAppTableRecord
  2
AcAecLayerStandard
 70
     0
  0
APPID
  5
10235
330
9
100
AcDbSymbolTableRecord
100
AcDbRegAppTableRecord
  2
HATCHBACKGROUNDCOLOR
 70
     0
  0
ENDTAB
  0
TABLE
  2
DIMSTYLE
  5
A
330
0
100
AcDbSymbolTable
 70
     1
100
AcDbDimStyleTable
  0
DIMSTYLE
105
10000
330
A
100
AcDbSymbolTableRecord
100
AcDbDimStyleTableRecord
  2
STANDARD
 70
     0
178
     0
340
11
  0
ENDTAB
  0
TABLE
  2
BLOCK_RECORD
  5
1
330
0
100
AcDbSymbolTable
 70
     1
  0
BLOCK_RECORD
  5
1F
102
{ACAD_XDICTIONARY
360
10236
102
}
330
1
100
AcDbSymbolTableRecord
100
AcDbBlockTableRecord
  2
*MODEL_SPACE
340
10074
 70
     0
280
     1
281
     0
  0
BLOCK_RECORD
  5
1B
330
1
100
AcDbSymbolTableRecord
100
AcDbBlockTableRecord
  2
*PAPER_SPACE
340
10075
 70
     0
280
     1
281
     0
  0
BLOCK_RECORD
  5
1080E
330
1
100
AcDbSymbolTableRecord
100
AcDbBlockTableRecord
  2
all
340
0
 70
     0
280
     1
281
     0
  0
ENDTAB
  0
ENDSEC
  0
SECTION
  2
BLOCKS
  0
BLOCK
  5
20
330
1F
100
AcDbEntity
  8
0
100
AcDbBlockBegin
  2
*MODEL_SPACE
 70
     0
 10
0.0
 20
0.0
 30
0.0
  3
*MODEL_SPACE
  1

  0
ENDBLK
  5
21
330
1F
100
AcDbEntity
  8
0
100
AcDbBlockEnd
  0
BLOCK
  5
1C
330
1B
100
AcDbEntity
 67
     1
  8
0
100
AcDbBlockBegin
  2
*PAPER_SPACE
 70
     0
 10
0.0
 20
0.0
 30
0.0
  3
*PAPER_SPACE
  1

  0
ENDBLK
  5
1D
330
1B
100
AcDbEntity
 67
     1
  8
0
100
AcDbBlockEnd
  0
BLOCK
  5
108E9
330
1080E
100
AcDbEntity
  8
0
100
AcDbBlockBegin
  2
all
 70
     0
 10
0.0
 20
0.0
 30
0.0
  3
all
  1

  0
LINE
  5
1080F
330
1080E
100
AcDbEntity
  8
Original
100
AcDbLine
 10
3.886866210065666
 20
4.499652285874004
 30
0.0
 11
3.886866210065666
 21
4.999594321103475
 31
0.0
  0
LINE
  5
10810
330
1080E
100
AcDbEntity
  8
Original
100
AcDbLine
 10
3.886866210065666
 20
4.999594321103475
 30
0.0
 11
3.888479042497636
 21
4.999594321103475
 31
0.0
  0
LINE
  5
10811
330
1080E
100
AcDbEntity
  8
Original
100
AcDbLine
 10
3.888479042497636
 20
4.999594321103475
 30
0.0
 11
4.288429031376705
 21
4.999594321103475
 31
0.0
  0
LINE
  5
10812
330
1080E
100
AcDbEntity
  8
Original
100
AcDbLine
 10
4.288429031376705
 20
4.999594321103475
 30
0.0
 11
4.288429031376698
 21
4.499652285874004
 31
0.0
  0
LINE
  5
10813
330
1080E
100
AcDbEntity
  8
Original
100
AcDbLine
 10
4.288429031376698
 20
4.499652285874004
 30
0.0
 11
4.527509739915462
 21
4.499652285874004
 31
0.0
  0
LINE
  5
10814
330
1080E
100
AcDbEntity
  8
Original
100
AcDbLine
 10
4.527509739915462
 20
4.499652285874004
 30
0.0
 11
4.649672252158783
 21
4.499652285874004
 31
0.0
  0
LINE
  5
10815
330
1080E
100
AcDbEntity
  8
Original
100
AcDbLine
 10
5.147910578309009
 20
4.499652285874002
 30
0.0
 11
5.15073303356289
 21
4.499652285874002
 31
0.0
  0
LINE
  5
10816
330
1080E
100
AcDbEntity
  8
Original
100
AcDbLine
 10
4.652494707412664
 20
4.499652285874004
 30
0.0
 11
5.486667357526926
 21
4.499652285874004
 31
0.0
  0
LINE
  5
10817
330
1080E
100
AcDbEntity
  8
Original
100
AcDbLine
 10
5.486667357526926
 20
4.499652285874004
 30
0.0
 11
5.486667357526926
 21
4.999594321103477
 31
0.0
  0
LINE
  5
10818
330
1080E
100
AcDbEntity
  8
Original
100
AcDbLine
 10
5.486667357526926
 20
4.999594321103477
 30
0.0
 11
5.488280189958886
 21
4.999594321103477
 31
0.0
  0
LINE
  5
10819
330
1080E
100
AcDbEntity
  8
Original
100
AcDbLine
 10
5.488280189958886
 20
4.999594321103477
 30
0.0
 11
5.688256376343411
 21
4.999594321103477
 31
0.0
  0
LINE
  5
1081A
330
1080E
100
AcDbEntity
  8
Original
100
AcDbLine
 10
5.688256376343411
 20
4.999594321103477
 30
0.0
 11
5.688256376343411
 21
4.499652285874004
 31
0.0
  0
LINE
  5
1081B
330
1080E
100
AcDbEntity
  8
Original
100
AcDbLine
 10
5.688256376343411
 20
4.499652285874004
 30
0.0
 11
6.486543521669596
 21
4.499652285874004
 31
0.0
  0
LINE
  5
1081C
330
1080E
100
AcDbEntity
  8
Original
100
AcDbLine
 10
6.486543521669596
 20
4.499652285874004
 30
0.0
 11
6.486543521669596
 21
4.999594321103477
 31
0.0
  0
LINE
  5
1081D
330
1080E
100
AcDbEntity
  8
Original
100
AcDbLine
 10
6.486543521669596
 20
4.999594321103477
 30
0.0
 11
6.488156354101555
 21
4.999594321103477
 31
0.0
  0
LINE
  5
1081E
330
1080E
100
AcDbEntity
  8
Original
100
AcDbLine
 10
6.488156354101555
 20
4.999594321103477
 30
0.0
 11
6.688131348541091
 21
4.999594321103477
 31
0.0
  0
LINE
  5
1081F
330
1080E
100
AcDbEntity
  8
Original
100
AcDbLine
 10
6.688131348541091
 20
4.999594321103477
 30
0.0
 11
6.688131348541091
 21
4.499652285874004
 31
0.0
  0
LINE
  5
10820
330
1080E
100
AcDbEntity
  8
Original
100
AcDbLine
 10
6.688131348541091
 20
4.499652285874004
 30
0.0
 11
7.486419685812248
 21
4.499652285874004
 31
0.0
  0
LINE
  5
10821
330
1080E
100
AcDbEntity
  8
Original
100
AcDbLine
 10
7.486419685812248
 20
4.499652285874004
 30
0.0
 11
7.486419685812248
 21
4.999594321103477
 31
0.0
  0
LINE
  5
10822
330
1080E
100
AcDbEntity
  8
Original
100
AcDbLine
 10
7.486419685812248
 20
4.999594321103477
 30
0.0
 11
7.488032518244214
 21
4.999594321103477
 31
0.0
  0
LINE
  5
10823
330
1080E
100
AcDbEntity
  8
Original
100
AcDbLine
 10
7.488032518244214
 20
4.999594321103477
 30
0.0
 11
7.688007512683743
 21
4.999594321103477
 31
0.0
  0
LINE
  5
10824
330
1080E
100
AcDbEntity
  8
Original
100
AcDbLine
 10
7.688007512683743
 20
4.999594321103477
 30
0.0
 11
7.688007512683743
 21
4.499652285874004
 31
0.0
  0
LINE
  5
10825
330
1080E
100
AcDbEntity
  8
Original
100
AcDbLine
 10
7.688007512683743
 20
4.499652285874004
 30
0.0
 11
8.486295849954914
 21
4.499652285874004
 31
0.0
  0
LINE
  5
10826
330
1080E
100
AcDbEntity
  8
Original
100
AcDbLine
 10
8.486295849954914
 20
4.499652285874004
 30
0.0
 11
8.486295849954914
 21
4.999594321103477
 31
0.0
  0
LINE
  5
10827
330
1080E
100
AcDbEntity
  8
Original
100
AcDbLine
 10
8.486295849954914
 20
4.999594321103477
 30
0.0
 11
8.48790868238688
 21
4.999594321103477
 31
0.0
  0
LINE
  5
10828
330
1080E
100
AcDbEntity
  8
Original
100
AcDbLine
 10
8.48790868238688
 20
4.999594321103477
 30
0.0
 11
8.68788367682641
 21
4.999594321103477
 31
0.0
  0
LINE
  5
10829
330
1080E
100
AcDbEntity
  8
Original
100
AcDbLine
 10
8.68788367682641
 20
4.999594321103477
 30
0.0
 11
8.68788367682641
 21
4.499652285874004
 31
0.0
  0
LINE
  5
1082A
330
1080E
100
AcDbEntity
  8
Original
100
AcDbLine
 10
8.68788367682641
 20
4.499652285874004
 30
0.0
 11
9.486171418125078
 21
4.499652285874004
 31
0.0
  0
LINE
  5
1082B
330
1080E
100
AcDbEntity
  8
Original
100
AcDbLine
 10
9.486171418125078
 20
4.499652285874004
 30
0.0
 11
9.486171418125078
 21
4.999594321103477
 31
0.0
  0
LINE
  5
1082C
330
1080E
100
AcDbEntity
  8
Original
100
AcDbLine
 10
9.486171418125078
 20
4.999594321103477
 30
0.0
 11
9.487784250557052
 21
4.999594321103477
 31
0.0
  0
LINE
  5
1082D
330
1080E
100
AcDbEntity
  8
Original
100
AcDbLine
 10
9.487784250557052
 20
4.999594321103477
 30
0.0
 11
9.687759840969075
 21
4.999594321103477
 31
0.0
  0
LINE
  5
1082E
330
1080E
100
AcDbEntity
  8
Original
100
AcDbLine
 10
9.687759840969075
 20
4.999594321103477
 30
0.0
 11
9.687759840969075
 21
4.499652285874004
 31
0.0
  0
LINE
  5
1082F
330
1080E
100
AcDbEntity
  8
Original
100
AcDbLine
 10
9.687759840969075
 20
4.499652285874004
 30
0.0
 11
10.48604758226773
 21
4.499652285874004
 31
0.0
  0
LINE
  5
10830
330
1080E
100
AcDbEntity
  8
Original
100
AcDbLine
 10
10.48604758226773
 20
4.499652285874004
 30
0.0
 11
10.48604758226773
 21
4.999594321103477
 31
0.0
  0
LINE
  5
10831
330
1080E
100
AcDbEntity
  8
Original
100
AcDbLine
 10
10.48604758226773
 20
4.999594321103477
 30
0.0
 11
10.4876604146997
 21
4.999594321103477
 31
0.0
  0
LINE
  5
10832
330
1080E
100
AcDbEntity
  8
Original
100
AcDbLine
 10
10.4876604146997
 20
4.999594321103477
 30
0.0
 11
10.68763540913923
 21
4.999594321103477
 31
0.0
  0
LINE
  5
10833
330
1080E
100
AcDbEntity
  8
Original
100
AcDbLine
 10
10.68763540913923
 20
4.999594321103477
 30
0.0
 11
10.68763540913923
 21
4.499652285874004
 31
0.0
  0
LINE
  5
10834
330
1080E
100
AcDbEntity
  8
Original
100
AcDbLine
 10
10.68763540913923
 20
4.499652285874004
 30
0.0
 11
11.4849237045659
 21
4.499652285874004
 31
0.0
  0
LINE
  5
10835
330
1080E
100
AcDbEntity
  8
Original
100
AcDbLine
 10
11.4849237045659
 20
4.499652285874004
 30
0.0
 11
11.4849237045659
 21
4.999594321103479
 31
0.0
  0
LINE
  5
10836
330
1080E
100
AcDbEntity
  8
Original
100
AcDbLine
 10
11.4849237045659
 20
4.999594321103479
 30
0.0
 11
11.48653653699787
 21
4.999594321103479
 31
0.0
  0
LINE
  5
10837
330
1080E
100
AcDbEntity
  8
Original
100
AcDbLine
 10
11.48653653699787
 20
4.999594321103479
 30
0.0
 11
11.6865115314374
 21
4.999594321103479
 31
0.0
  0
LINE
  5
10838
330
1080E
100
AcDbEntity
  8
Original
100
AcDbLine
 10
11.6865115314374
 20
4.999594321103479
 30
0.0
 11
11.6865115314374
 21
4.499652285874004
 31
0.0
  0
LINE
  5
10839
330
1080E
100
AcDbEntity
  8
Original
100
AcDbLine
 10
11.6865115314374
 20
4.499652285874004
 30
0.0
 11
12.48479927273607
 21
4.499652285874004
 31
0.0
  0
LINE
  5
1083A
330
1080E
100
AcDbEntity
  8
Original
100
AcDbLine
 10
12.48479927273607
 20
4.499652285874004
 30
0.0
 11
12.48479927273607
 21
4.999594321103479
 31
0.0
  0
LINE
  5
1083B
330
1080E
100
AcDbEntity
  8
Original
100
AcDbLine
 10
12.48479927273607
 20
4.999594321103479
 30
0.0
 11
12.48641210516804
 21
4.999594321103479
 31
0.0
  0
LINE
  5
1083C
330
1080E
100
AcDbEntity
  8
Original
100
AcDbLine
 10
12.48641210516804
 20
4.999594321103479
 30
0.0
 11
12.68638769558006
 21
4.999594321103479
 31
0.0
  0
LINE
  5
1083D
330
1080E
100
AcDbEntity
  8
Original
100
AcDbLine
 10
12.68638769558006
 20
4.999594321103479
 30
0.0
 11
12.68638769558006
 21
4.499652285874004
 31
0.0
  0
LINE
  5
1083E
330
1080E
100
AcDbEntity
  8
Original
100
AcDbLine
 10
12.68638769558006
 20
4.499652285874004
 30
0.0
 11
13.48467543687874
 21
4.499652285874006
 31
0.0
  0
LINE
  5
1083F
330
1080E
100
AcDbEntity
  8
Original
100
AcDbLine
 10
13.48467543687874
 20
4.499652285874006
 30
0.0
 11
13.48467543687874
 21
4.999594321103479
 31
0.0
  0
LINE
  5
10840
330
1080E
100
AcDbEntity
  8
Original
100
AcDbLine
 10
13.48467543687874
 20
4.999594321103479
 30
0.0
 11
13.48628826931069
 21
4.999594321103479
 31
0.0
  0
LINE
  5
10841
330
1080E
100
AcDbEntity
  8
Original
100
AcDbLine
 10
13.48628826931069
 20
4.999594321103479
 30
0.0
 11
13.68626356173648
 21
4.999594321103479
 31
0.0
  0
LINE
  5
10842
330
1080E
100
AcDbEntity
  8
Original
100
AcDbLine
 10
13.68626356173648
 20
4.999594321103479
 30
0.0
 11
13.68626356173648
 21
4.499652285874006
 31
0.0
  0
LINE
  5
10843
330
1080E
100
AcDbEntity
  8
Original
100
AcDbLine
 10
13.68626356173648
 20
4.499652285874006
 30
0.0
 11
14.05032834381369
 21
4.499652285874006
 31
0.0
  0
LINE
  5
10844
330
1080E
100
AcDbEntity
  8
Original
100
AcDbLine
 10
14.05032834381369
 20
4.499652285874006
 30
0.0
 11
14.17249055807078
 21
4.499652285874006
 31
0.0
  0
LINE
  5
10845
330
1080E
100
AcDbEntity
  8
Original
100
AcDbLine
 10
14.17249055807078
 20
4.499652285874006
 30
0.0
 11
14.17531301332466
 21
4.499652285874006
 31
0.0
  0
LINE
  5
10846
330
1080E
100
AcDbEntity
  8
Original
100
AcDbLine
 10
14.17531301332466
 20
4.499652285874006
 30
0.0
 11
14.38456380581538
 21
4.499652285874006
 31
0.0
  0
LINE
  5
10847
330
1080E
100
AcDbEntity
  8
Original
100
AcDbLine
 10
14.38456380581538
 20
4.499652285874006
 30
0.0
 11
14.38456380581538
 21
4.999594321103479
 31
0.0
  0
LINE
  5
10848
330
1080E
100
AcDbEntity
  8
Original
100
AcDbLine
 10
14.38456380581538
 20
4.999594321103479
 30
0.0
 11
14.38617663824734
 21
4.999594321103479
 31
0.0
  0
LINE
  5
10849
330
1080E
100
AcDbEntity
  8
Original
100
AcDbLine
 10
14.38617663824734
 20
4.999594321103479
 30
0.0
 11
14.78612722309891
 21
4.999594321103479
 31
0.0
  0
LINE
  5
1084A
330
1080E
100
AcDbEntity
  8
Original
100
AcDbLine
 10
14.78612722309891
 20
4.999594321103479
 30
0.0
 11
14.78612722309891
 21
4.499652285874006
 31
0.0
  0
LINE
  5
1084B
330
1080E
100
AcDbEntity
  8
Original
100
AcDbLine
 10
14.78612722309891
 20
4.499652285874006
 30
0.0
 11
16.69999999999999
 21
4.499652285874006
 31
0.0
  0
LINE
  5
1084C
330
1080E
100
AcDbEntity
  8
Original
100
AcDbLine
 10
16.69999999999999
 20
4.499652285874006
 30
0.0
 11
16.69999999999999
 21
2.199919065363049
 31
0.0
  0
LINE
  5
1084D
330
1080E
100
AcDbEntity
  8
Original
100
AcDbLine
 10
16.69999999999999
 20
2.199919065363049
 30
0.0
 11
14.78612722309891
 21
1.767750635955486
 31
0.0
  0
LINE
  5
1084E
330
1080E
100
AcDbEntity
  8
Original
100
AcDbLine
 10
14.75620546821369
 20
1.767750635955487
 30
0.0
 11
14.75620546821369
 21
1.699976918387827
 31
0.0
  0
LINE
  5
1084F
330
1080E
100
AcDbEntity
  8
Original
100
AcDbLine
 10
14.75620546821369
 20
1.699976918387827
 30
0.0
 11
14.456067225307
 21
1.699976918387827
 31
0.0
  0
LINE
  5
10850
330
1080E
100
AcDbEntity
  8
Original
100
AcDbLine
 10
14.48598898019221
 20
1.699976918387827
 30
0.0
 11
13.60038430833849
 21
1.5
 31
0.0
  0
LINE
  5
10851
330
1080E
100
AcDbEntity
  8
Original
100
AcDbLine
 10
13.60038430833849
 20
1.5
 30
0.0
 11
5.102438444901612
 21
1.5
 31
0.0
  0
LINE
  5
10852
330
1080E
100
AcDbEntity
  8
Footprint
100
AcDbLine
 10
4.604200118751384
 20
1.369501304186162
 30
0.0
 11
4.601377663497507
 21
1.369501304186162
 31
0.0
  0
LINE
  5
10853
330
1080E
100
AcDbEntity
  8
Original
100
AcDbLine
 10
5.099615989647734
 20
1.5
 30
0.0
 11
4.214011232655064
 21
1.699976918387823
 31
0.0
  0
LINE
  5
10854
330
1080E
100
AcDbEntity
  8
Original
100
AcDbLine
 10
4.214011232655064
 20
1.699976918387823
 30
0.0
 11
3.888479042497636
 21
1.699976918387823
 31
0.0
  0
LINE
  5
10855
330
1080E
100
AcDbEntity
  8
Original
100
AcDbLine
 10
3.888479042497636
 20
1.699976918387823
 30
0.0
 11
3.886866210065669
 21
1.699976918387823
 31
0.0
  0
LINE
  5
10856
330
1080E
100
AcDbEntity
  8
Original
100
AcDbLine
 10
3.886866210065669
 20
1.699976918387823
 30
0.0
 11
3.886866210065669
 21
1.773848984867569
 31
0.0
  0
LINE
  5
10857
330
1080E
100
AcDbEntity
  8
Original
100
AcDbLine
 10
3.886866210065669
 20
1.773848984867569
 30
0.0
 11
1.999999999999996
 21
2.199919065363045
 31
0.0
  0
LINE
  5
10858
330
1080E
100
AcDbEntity
  8
Original
100
AcDbLine
 10
1.999999999999996
 20
2.199919065363045
 30
0.0
 11
1.999999999999993
 21
4.499652285874004
 31
0.0
  0
LINE
  5
10859
330
1080E
100
AcDbEntity
  8
Original
100
AcDbLine
 10
1.999999999999993
 20
4.499652285874004
 30
0.0
 11
3.886866210065666
 21
4.499652285874004
 31
0.0
  0
LINE
  5
1085A
330
1080E
100
AcDbEntity
  8
Footprint
100
AcDbLine
 10
3.786866210065664
 20
4.249594321103475
 30
0.0
 11
3.786866210065664
 21
5.099594321103475
 31
0.0
  0
LINE
  5
1085B
330
1080E
100
AcDbEntity
  8
Footprint
100
AcDbLine
 10
3.786866210065664
 20
5.099594321103475
 30
0.0
 11
4.388429031376708
 21
5.099594321103475
 31
0.0
  0
LINE
  5
1085C
330
1080E
100
AcDbEntity
  8
Footprint
100
AcDbLine
 10
4.388429031376708
 20
5.099594321103475
 30
0.0
 11
4.388429031376694
 21
4.249594321103475
 31
0.0
  0
LINE
  5
1085D
330
1080E
100
AcDbEntity
  8
Footprint
100
AcDbLine
 10
3.786866210065664
 20
4.249594321103475
 30
0.0
 11
4.388429031376694
 21
4.249594321103475
 31
0.0
  0
LINE
  5
1085E
330
1080E
100
AcDbEntity
  8
Footprint
100
AcDbLine
 10
4.89004186380866
 20
1.599976918387823
 30
0.0
 11
5.290018050193181
 21
1.599976918387823
 31
0.0
  0
LINE
  5
1085F
330
1080E
100
AcDbEntity
  8
Footprint
100
AcDbLine
 10
4.89004186380866
 20
2.449976918387823
 30
0.0
 11
4.89004186380866
 21
1.599976918387823
 31
0.0
  0
LINE
  5
10860
330
1080E
100
AcDbEntity
  8
Footprint
100
AcDbLine
 10
4.89004186380866
 20
2.449976918387823
 30
0.0
 11
5.290018050193181
 21
2.449976918387823
 31
0.0
  0
LINE
  5
10861
330
1080E
100
AcDbEntity
  8
Footprint
100
AcDbLine
 10
5.290018050193181
 20
2.449976918387823
 30
0.0
 11
5.290018050193181
 21
1.599976918387823
 31
0.0
  0
LINE
  5
10862
330
1080E
100
AcDbEntity
  8
Original
100
AcDbLine
 10
4.988429031376697
 20
2.199918953617295
 30
0.0
 11
4.988429031376697
 21
1.699976918387821
 31
0.0
  0
LINE
  5
10863
330
1080E
100
AcDbEntity
  8
Original
100
AcDbLine
 10
4.990041863808656
 20
1.699976918387821
 30
0.0
 11
5.190018050193181
 21
1.699976918387821
 31
0.0
  0
LINE
  5
10864
330
1080E
100
AcDbEntity
  8
Original
100
AcDbLine
 10
5.190018050193181
 20
1.699976918387821
 30
0.0
 11
5.190018050193181
 21
2.199918953617295
 31
0.0
  0
LINE
  5
10865
330
1080E
100
AcDbEntity
  8
Original
100
AcDbLine
 10
3.886866210065666
 20
2.199918953617295
 30
0.0
 11
3.886866210065666
 21
1.699976918387823
 31
0.0
  0
LINE
  5
10866
330
1080E
100
AcDbEntity
  8
Original
100
AcDbLine
 10
3.886866210065666
 20
1.699976918387823
 30
0.0
 11
3.888479042497636
 21
1.699976918387823
 31
0.0
  0
LINE
  5
10867
330
1080E
100
AcDbEntity
  8
Original
100
AcDbLine
 10
3.888479042497636
 20
1.699976918387823
 30
0.0
 11
4.288429031376705
 21
1.699976918387823
 31
0.0
  0
LINE
  5
10868
330
1080E
100
AcDbEntity
  8
Original
100
AcDbLine
 10
4.288429031376705
 20
1.699976918387823
 30
0.0
 11
4.288429031376698
 21
2.199918953617295
 31
0.0
  0
LINE
  5
10869
330
1080E
100
AcDbEntity
  8
Original
100
AcDbLine
 10
12.9884290313767
 20
2.199918953617295
 30
0.0
 11
12.9884290313767
 21
1.699976918387821
 31
0.0
  0
LINE
  5
1086A
330
1080E
100
AcDbEntity
  8
Original
100
AcDbLine
 10
12.99004186380866
 20
1.699976918387821
 30
0.0
 11
13.19001805019318
 21
1.699976918387821
 31
0.0
  0
LINE
  5
1086B
330
1080E
100
AcDbEntity
  8
Original
100
AcDbLine
 10
13.19001805019318
 20
1.699976918387821
 30
0.0
 11
13.19001805019318
 21
2.199918953617295
 31
0.0
  0
LINE
  5
1086C
330
1080E
100
AcDbEntity
  8
Original
100
AcDbLine
 10
5.988429031376697
 20
2.199918953617295
 30
0.0
 11
5.988429031376697
 21
1.699976918387821
 31
0.0
  0
LINE
  5
1086D
330
1080E
100
AcDbEntity
  8
Original
100
AcDbLine
 10
5.990041863808656
 20
1.699976918387821
 30
0.0
 11
6.190018050193181
 21
1.699976918387821
 31
0.0
  0
LINE
  5
1086E
330
1080E
100
AcDbEntity
  8
Original
100
AcDbLine
 10
6.190018050193181
 20
1.699976918387821
 30
0.0
 11
6.190018050193181
 21
2.199918953617295
 31
0.0
  0
LINE
  5
1086F
330
1080E
100
AcDbEntity
  8
Original
100
AcDbLine
 10
6.988429031376697
 20
2.199918953617296
 30
0.0
 11
6.988429031376697
 21
1.699976918387822
 31
0.0
  0
LINE
  5
10870
330
1080E
100
AcDbEntity
  8
Original
100
AcDbLine
 10
6.990041863808656
 20
1.699976918387822
 30
0.0
 11
7.190018050193181
 21
1.699976918387822
 31
0.0
  0
LINE
  5
10871
330
1080E
100
AcDbEntity
  8
Original
100
AcDbLine
 10
7.190018050193181
 20
1.699976918387822
 30
0.0
 11
7.190018050193181
 21
2.199918953617296
 31
0.0
  0
LINE
  5
10872
330
1080E
100
AcDbEntity
  8
Original
100
AcDbLine
 10
7.988429031376697
 20
2.199918953617296
 30
0.0
 11
7.988429031376697
 21
1.699976918387822
 31
0.0
  0
LINE
  5
10873
330
1080E
100
AcDbEntity
  8
Original
100
AcDbLine
 10
7.990041863808656
 20
1.699976918387822
 30
0.0
 11
8.190018050193181
 21
1.699976918387822
 31
0.0
  0
LINE
  5
10874
330
1080E
100
AcDbEntity
  8
Original
100
AcDbLine
 10
8.190018050193181
 20
1.699976918387822
 30
0.0
 11
8.190018050193181
 21
2.199918953617296
 31
0.0
  0
LINE
  5
10875
330
1080E
100
AcDbEntity
  8
Original
100
AcDbLine
 10
8.988429031376697
 20
2.199918953617296
 30
0.0
 11
8.988429031376697
 21
1.699976918387822
 31
0.0
  0
LINE
  5
10876
330
1080E
100
AcDbEntity
  8
Original
100
AcDbLine
 10
8.990041863808656
 20
1.699976918387822
 30
0.0
 11
9.190018050193181
 21
1.699976918387822
 31
0.0
  0
LINE
  5
10877
330
1080E
100
AcDbEntity
  8
Original
100
AcDbLine
 10
9.190018050193181
 20
1.699976918387822
 30
0.0
 11
9.190018050193181
 21
2.199918953617296
 31
0.0
  0
LINE
  5
10878
330
1080E
100
AcDbEntity
  8
Original
100
AcDbLine
 10
9.988429031376697
 20
2.199918953617296
 30
0.0
 11
9.988429031376697
 21
1.699976918387822
 31
0.0
  0
LINE
  5
10879
330
1080E
100
AcDbEntity
  8
Original
100
AcDbLine
 10
9.990041863808656
 20
1.699976918387822
 30
0.0
 11
10.19001805019318
 21
1.699976918387822
 31
0.0
  0
LINE
  5
1087A
330
1080E
100
AcDbEntity
  8
Original
100
AcDbLine
 10
10.19001805019318
 20
1.699976918387822
 30
0.0
 11
10.19001805019318
 21
2.199918953617296
 31
0.0
  0
LINE
  5
1087B
330
1080E
100
AcDbEntity
  8
Original
100
AcDbLine
 10
10.9884290313767
 20
2.199918953617297
 30
0.0
 11
10.9884290313767
 21
1.699976918387823
 31
0.0
  0
LINE
  5
1087C
330
1080E
100
AcDbEntity
  8
Original
100
AcDbLine
 10
10.99004186380866
 20
1.699976918387823
 30
0.0
 11
11.19001805019318
 21
1.699976918387823
 31
0.0
  0
LINE
  5
1087D
330
1080E
100
AcDbEntity
  8
Original
100
AcDbLine
 10
11.19001805019318
 20
1.699976918387823
 30
0.0
 11
11.19001805019318
 21
2.199918953617297
 31
0.0
  0
LINE
  5
1087E
330
1080E
100
AcDbEntity
  8
Original
100
AcDbLine
 10
11.9884290313767
 20
2.199918953617297
 30
0.0
 11
11.9884290313767
 21
1.699976918387823
 31
0.0
  0
LINE
  5
1087F
330
1080E
100
AcDbEntity
  8
Original
100
AcDbLine
 10
11.99004186380866
 20
1.699976918387823
 30
0.0
 11
12.19001805019318
 21
1.699976918387823
 31
0.0
  0
LINE
  5
10880
330
1080E
100
AcDbEntity
  8
Original
100
AcDbLine
 10
12.19001805019318
 20
1.699976918387823
 30
0.0
 11
12.19001805019318
 21
2.199918953617297
 31
0.0
  0
LINE
  5
10881
330
1080E
100
AcDbEntity
  8
Original
  6
ByBlock
100
AcDbLine
 10
0.7714239552345763
 20
3.349785619745651
 30
0.0
 11
17.92768941404838
 21
3.349785619745649
 31
0.0
  0
LINE
  5
10882
330
1080E
100
AcDbEntity
  8
Footprint
100
AcDbLine
 10
4.89004186380866
 20
2.324976918387823
 30
0.0
 11
4.89004186380866
 21
1.724976918387823
 31
0.0
  0
LINE
  5
10883
330
1080E
100
AcDbEntity
  8
Footprint
100
AcDbLine
 10
5.290018050193181
 20
2.324976918387823
 30
0.0
 11
5.290018050193181
 21
1.724976918387823
 31
0.0
  0
LINE
  5
10884
330
1080E
100
AcDbEntity
  8
Footprint
100
AcDbLine
 10
4.89004186380866
 20
2.324976918387823
 30
0.0
 11
4.89004186380866
 21
1.724976918387823
 31
0.0
  0
LINE
  5
10885
330
1080E
100
AcDbEntity
  8
Footprint
100
AcDbLine
 10
5.290018050193181
 20
2.324976918387823
 30
0.0
 11
5.290018050193181
 21
1.724976918387823
 31
0.0
  0
LINE
  5
10886
330
1080E
100
AcDbEntity
  8
Footprint
100
AcDbLine
 10
4.89004186380866
 20
2.324976918387823
 30
0.0
 11
4.89004186380866
 21
1.724976918387823
 31
0.0
  0
LINE
  5
10887
330
1080E
100
AcDbEntity
  8
Footprint
100
AcDbLine
 10
5.290018050193181
 20
2.324976918387823
 30
0.0
 11
5.290018050193181
 21
1.724976918387823
 31
0.0
  0
LINE
  5
10888
330
1080E
100
AcDbEntity
  8
Footprint
100
AcDbLine
 10
0.9999999999999911
 20
5.699652285874007
 30
0.0
 11
17.69999999999999
 21
5.699652285874006
 31
0.0
  0
LINE
  5
10889
330
1080E
100
AcDbEntity
  8
Footprint
100
AcDbLine
 10
17.69999999999999
 20
5.699652285874006
 30
0.0
 11
17.69999999999999
 21
1.913138530984009
 31
0.0
  0
LINE
  5
1088A
330
1080E
100
AcDbEntity
  8
Footprint
100
AcDbLine
 10
17.69999999999999
 20
1.913138530984009
 30
0.0
 11
13.65613455988564
 21
1.0
 31
0.0
  0
LINE
  5
1088B
330
1080E
100
AcDbEntity
  8
Footprint
100
AcDbLine
 10
13.65613455988564
 20
1.0
 30
0.0
 11
5.043865743328592
 21
1.0
 31
0.0
  0
LINE
  5
1088C
330
1080E
100
AcDbEntity
  8
Footprint
100
AcDbLine
 10
5.043865743328592
 20
1.0
 30
0.0
 11
0.9999999999999964
 21
1.913138511666357
 31
0.0
  0
LINE
  5
1088D
330
1080E
100
AcDbEntity
  8
Footprint
100
AcDbLine
 10
0.9999999999999964
 20
1.913138511666357
 30
0.0
 11
0.9999999999999911
 21
5.699652285874007
 31
0.0
  0
LINE
  5
1088E
330
1080E
100
AcDbEntity
  8
Footprint
100
AcDbLine
 10
-0.0000000000000018
 20
0.0
 30
0.0
 11
-0.0000000000000107
 21
6.699652285874008
 31
0.0
  0
LINE
  5
1088F
330
1080E
100
AcDbEntity
  8
Footprint
100
AcDbLine
 10
18.7
 20
6.699652285874006
 30
0.0
 11
18.69999999999999
 21
0.0
 31
0.0
  0
LINE
  5
10890
330
1080E
100
AcDbEntity
  8
Footprint
100
AcDbLine
 10
-0.0000000000000107
 20
6.699652285874008
 30
0.0
 11
18.7
 21
6.699652285874006
 31
0.0
  0
LINE
  5
10891
330
1080E
100
AcDbEntity
  8
Footprint
100
AcDbLine
 10
18.69999999999999
 20
0.0
 30
0.0
 11
0.0
 21
0.0
 31
0.0
  0
LINE
  5
10892
330
1080E
100
AcDbEntity
  8
Original
100
AcDbLine
 10
14.38456380581538
 20
2.199918953617293
 30
0.0
 11
14.38456380581538
 21
1.69997691838782
 31
0.0
  0
LINE
  5
10893
330
1080E
100
AcDbEntity
  8
Original
100
AcDbLine
 10
14.38456380581538
 20
1.69997691838782
 30
0.0
 11
14.38617663824734
 21
1.69997691838782
 31
0.0
  0
LINE
  5
10894
330
1080E
100
AcDbEntity
  8
Original
100
AcDbLine
 10
14.38617663824734
 20
1.69997691838782
 30
0.0
 11
14.78612722309891
 21
1.69997691838782
 31
0.0
  0
LINE
  5
10895
330
1080E
100
AcDbEntity
  8
Original
100
AcDbLine
 10
14.78612722309891
 20
1.69997691838782
 30
0.0
 11
14.78612722309891
 21
2.199918953617293
 31
0.0
  0
LINE
  5
10896
330
1080E
100
AcDbEntity
  8
Footprint
100
AcDbLine
 10
4.388429031376708
 20
1.599976918387828
 30
0.0
 11
4.388429031376694
 21
2.449976918387827
 31
0.0
  0
LINE
  5
10897
330
1080E
100
AcDbEntity
  8
Footprint
100
AcDbLine
 10
3.786866210065664
 20
2.449976918387827
 30
0.0
 11
3.786866210065664
 21
1.599976918387828
 31
0.0
  0
LINE
  5
10898
330
1080E
100
AcDbEntity
  8
Footprint
100
AcDbLine
 10
3.786866210065664
 20
2.449976918387827
 30
0.0
 11
4.388429031376694
 21
2.449976918387827
 31
0.0
  0
LINE
  5
10899
330
1080E
100
AcDbEntity
  8
Footprint
100
AcDbLine
 10
3.786866210065664
 20
1.599976918387828
 30
0.0
 11
4.388429031376708
 21
1.599976918387828
 31
0.0
  0
LINE
  5
1089A
330
1080E
100
AcDbEntity
  8
Footprint
100
AcDbLine
 10
5.388280189958884
 20
4.24959432110348
 30
0.0
 11
5.788256376343405
 21
4.24959432110348
 31
0.0
  0
LINE
  5
1089B
330
1080E
100
AcDbEntity
  8
Footprint
100
AcDbLine
 10
5.788256376343405
 20
4.37459432110348
 30
0.0
 11
5.788256376343403
 21
4.97459432110348
 31
0.0
  0
LINE
  5
1089C
330
1080E
100
AcDbEntity
  8
Footprint
100
AcDbLine
 10
5.788256376343405
 20
4.37459432110348
 30
0.0
 11
5.788256376343403
 21
4.97459432110348
 31
0.0
  0
LINE
  5
1089D
330
1080E
100
AcDbEntity
  8
Footprint
100
AcDbLine
 10
5.788256376343405
 20
4.37459432110348
 30
0.0
 11
5.788256376343403
 21
4.97459432110348
 31
0.0
  0
LINE
  5
1089E
330
1080E
100
AcDbEntity
  8
Footprint
100
AcDbLine
 10
5.788256376343405
 20
4.24959432110348
 30
0.0
 11
5.788256376343403
 21
5.099594321103481
 31
0.0
  0
LINE
  5
1089F
330
1080E
100
AcDbEntity
  8
Footprint
100
AcDbLine
 10
5.388280189958884
 20
4.24959432110348
 30
0.0
 11
5.388280189958882
 21
5.09959432110348
 31
0.0
  0
LINE
  5
108A0
330
1080E
100
AcDbEntity
  8
Footprint
100
AcDbLine
 10
5.388280189958882
 20
5.09959432110348
 30
0.0
 11
5.788256376343403
 21
5.099594321103481
 31
0.0
  0
LINE
  5
108A1
330
1080E
100
AcDbEntity
  8
Footprint
100
AcDbLine
 10
6.388155162156565
 20
4.24959432110348
 30
0.0
 11
6.388155162156563
 21
5.09959432110348
 31
0.0
  0
LINE
  5
108A2
330
1080E
100
AcDbEntity
  8
Footprint
100
AcDbLine
 10
6.388155162156563
 20
5.09959432110348
 30
0.0
 11
6.788131348541082
 21
5.099594321103481
 31
0.0
  0
LINE
  5
108A3
330
1080E
100
AcDbEntity
  8
Footprint
100
AcDbLine
 10
6.788131348541086
 20
4.24959432110348
 30
0.0
 11
6.788131348541082
 21
5.099594321103481
 31
0.0
  0
LINE
  5
108A4
330
1080E
100
AcDbEntity
  8
Footprint
100
AcDbLine
 10
6.388155162156565
 20
4.24959432110348
 30
0.0
 11
6.788131348541086
 21
4.24959432110348
 31
0.0
  0
LINE
  5
108A5
330
1080E
100
AcDbEntity
  8
Footprint
100
AcDbLine
 10
7.388030134354246
 20
4.249594321103481
 30
0.0
 11
7.388030134354242
 21
5.09959432110348
 31
0.0
  0
LINE
  5
108A6
330
1080E
100
AcDbEntity
  8
Footprint
100
AcDbLine
 10
7.388030134354242
 20
5.09959432110348
 30
0.0
 11
7.788006320738763
 21
5.099594321103482
 31
0.0
  0
LINE
  5
108A7
330
1080E
100
AcDbEntity
  8
Footprint
100
AcDbLine
 10
7.788006320738766
 20
4.249594321103481
 30
0.0
 11
7.788006320738763
 21
5.099594321103482
 31
0.0
  0
LINE
  5
108A8
330
1080E
100
AcDbEntity
  8
Footprint
100
AcDbLine
 10
7.388030134354246
 20
4.249594321103481
 30
0.0
 11
7.788006320738766
 21
4.249594321103481
 31
0.0
  0
LINE
  5
108A9
330
1080E
100
AcDbEntity
  8
Footprint
100
AcDbLine
 10
8.387905106551926
 20
4.249594321103481
 30
0.0
 11
8.387905106551923
 21
5.09959432110348
 31
0.0
  0
LINE
  5
108AA
330
1080E
100
AcDbEntity
  8
Footprint
100
AcDbLine
 10
8.387905106551923
 20
5.09959432110348
 30
0.0
 11
8.787881292936444
 21
5.099594321103482
 31
0.0
  0
LINE
  5
108AB
330
1080E
100
AcDbEntity
  8
Footprint
100
AcDbLine
 10
8.787881292936447
 20
4.249594321103481
 30
0.0
 11
8.787881292936444
 21
5.099594321103482
 31
0.0
  0
LINE
  5
108AC
330
1080E
100
AcDbEntity
  8
Footprint
100
AcDbLine
 10
8.387905106551926
 20
4.249594321103481
 30
0.0
 11
8.787881292936447
 21
4.249594321103481
 31
0.0
  0
LINE
  5
108AD
330
1080E
100
AcDbEntity
  8
Footprint
100
AcDbLine
 10
9.387780078749607
 20
4.249594321103481
 30
0.0
 11
9.387780078749604
 21
5.09959432110348
 31
0.0
  0
LINE
  5
108AE
330
1080E
100
AcDbEntity
  8
Footprint
100
AcDbLine
 10
9.387780078749604
 20
5.09959432110348
 30
0.0
 11
9.787756265134124
 21
5.099594321103482
 31
0.0
  0
LINE
  5
108AF
330
1080E
100
AcDbEntity
  8
Footprint
100
AcDbLine
 10
9.787756265134128
 20
4.249594321103481
 30
0.0
 11
9.787756265134124
 21
5.099594321103482
 31
0.0
  0
LINE
  5
108B0
330
1080E
100
AcDbEntity
  8
Footprint
100
AcDbLine
 10
9.387780078749607
 20
4.249594321103481
 30
0.0
 11
9.787756265134128
 21
4.249594321103481
 31
0.0
  0
LINE
  5
108B1
330
1080E
100
AcDbEntity
  8
Footprint
100
AcDbLine
 10
10.38765505094729
 20
4.249594321103481
 30
0.0
 11
10.38765505094728
 21
5.09959432110348
 31
0.0
  0
LINE
  5
108B2
330
1080E
100
AcDbEntity
  8
Footprint
100
AcDbLine
 10
10.38765505094728
 20
5.09959432110348
 30
0.0
 11
10.78763123733181
 21
5.099594321103482
 31
0.0
  0
LINE
  5
108B3
330
1080E
100
AcDbEntity
  8
Footprint
100
AcDbLine
 10
10.78763123733181
 20
4.249594321103481
 30
0.0
 11
10.78763123733181
 21
5.099594321103482
 31
0.0
  0
LINE
  5
108B4
330
1080E
100
AcDbEntity
  8
Footprint
100
AcDbLine
 10
10.38765505094729
 20
4.249594321103481
 30
0.0
 11
10.78763123733181
 21
4.249594321103481
 31
0.0
  0
LINE
  5
108B5
330
1080E
100
AcDbEntity
  8
Footprint
100
AcDbLine
 10
11.38753002314497
 20
4.249594321103482
 30
0.0
 11
11.38753002314496
 21
5.099594321103481
 31
0.0
  0
LINE
  5
108B6
330
1080E
100
AcDbEntity
  8
Footprint
100
AcDbLine
 10
11.38753002314496
 20
5.099594321103481
 30
0.0
 11
11.78750620952949
 21
5.099594321103483
 31
0.0
  0
LINE
  5
108B7
330
1080E
100
AcDbEntity
  8
Footprint
100
AcDbLine
 10
11.78750620952949
 20
4.249594321103482
 30
0.0
 11
11.78750620952949
 21
5.099594321103483
 31
0.0
  0
LINE
  5
108B8
330
1080E
100
AcDbEntity
  8
Footprint
100
AcDbLine
 10
11.38753002314497
 20
4.249594321103482
 30
0.0
 11
11.78750620952949
 21
4.249594321103482
 31
0.0
  0
LINE
  5
108B9
330
1080E
100
AcDbEntity
  8
Footprint
100
AcDbLine
 10
12.38740499534265
 20
4.249594321103482
 30
0.0
 11
12.38740499534265
 21
5.099594321103481
 31
0.0
  0
LINE
  5
108BA
330
1080E
100
AcDbEntity
  8
Footprint
100
AcDbLine
 10
12.38740499534265
 20
5.099594321103481
 30
0.0
 11
12.78738118172717
 21
5.099594321103483
 31
0.0
  0
LINE
  5
108BB
330
1080E
100
AcDbEntity
  8
Footprint
100
AcDbLine
 10
12.78738118172717
 20
4.249594321103482
 30
0.0
 11
12.78738118172717
 21
5.099594321103483
 31
0.0
  0
LINE
  5
108BC
330
1080E
100
AcDbEntity
  8
Footprint
100
AcDbLine
 10
12.38740499534265
 20
4.249594321103482
 30
0.0
 11
12.78738118172717
 21
4.249594321103482
 31
0.0
  0
LINE
  5
108BD
330
1080E
100
AcDbEntity
  8
Footprint
100
AcDbLine
 10
13.38727996754033
 20
4.249594321103482
 30
0.0
 11
13.38727996754033
 21
5.099594321103481
 31
0.0
  0
LINE
  5
108BE
330
1080E
100
AcDbEntity
  8
Footprint
100
AcDbLine
 10
13.38727996754033
 20
5.099594321103481
 30
0.0
 11
13.78725615392485
 21
5.099594321103483
 31
0.0
  0
LINE
  5
108BF
330
1080E
100
AcDbEntity
  8
Footprint
100
AcDbLine
 10
13.78725615392485
 20
4.249594321103482
 30
0.0
 11
13.78725615392485
 21
5.099594321103483
 31
0.0
  0
LINE
  5
108C0
330
1080E
100
AcDbEntity
  8
Footprint
100
AcDbLine
 10
13.38727996754033
 20
4.249594321103482
 30
0.0
 11
13.78725615392485
 21
4.249594321103482
 31
0.0
  0
LINE
  5
108C1
330
1080E
100
AcDbEntity
  8
Footprint
100
AcDbLine
 10
5.89004186380866
 20
2.449976918387823
 30
0.0
 11
6.290018050193181
 21
2.449976918387823
 31
0.0
  0
LINE
  5
108C2
330
1080E
100
AcDbEntity
  8
Footprint
100
AcDbLine
 10
5.89004186380866
 20
2.449976918387823
 30
0.0
 11
5.89004186380866
 21
1.599976918387823
 31
0.0
  0
LINE
  5
108C3
330
1080E
100
AcDbEntity
  8
Footprint
100
AcDbLine
 10
6.290018050193181
 20
2.449976918387823
 30
0.0
 11
6.290018050193181
 21
1.599976918387823
 31
0.0
  0
LINE
  5
108C4
330
1080E
100
AcDbEntity
  8
Footprint
100
AcDbLine
 10
5.89004186380866
 20
1.599976918387823
 30
0.0
 11
6.290018050193181
 21
1.599976918387823
 31
0.0
  0
LINE
  5
108C5
330
1080E
100
AcDbEntity
  8
Footprint
100
AcDbLine
 10
6.890041863808658
 20
2.449976918387824
 30
0.0
 11
7.290018050193179
 21
2.449976918387824
 31
0.0
  0
LINE
  5
108C6
330
1080E
100
AcDbEntity
  8
Footprint
100
AcDbLine
 10
6.890041863808658
 20
2.449976918387824
 30
0.0
 11
6.890041863808658
 21
1.599976918387823
 31
0.0
  0
LINE
  5
108C7
330
1080E
100
AcDbEntity
  8
Footprint
100
AcDbLine
 10
7.290018050193179
 20
2.449976918387824
 30
0.0
 11
7.290018050193179
 21
1.599976918387823
 31
0.0
  0
LINE
  5
108C8
330
1080E
100
AcDbEntity
  8
Footprint
100
AcDbLine
 10
6.890041863808658
 20
1.599976918387823
 30
0.0
 11
7.290018050193179
 21
1.599976918387823
 31
0.0
  0
LINE
  5
108C9
330
1080E
100
AcDbEntity
  8
Footprint
100
AcDbLine
 10
7.890041863808658
 20
2.449976918387824
 30
0.0
 11
8.29001805019318
 21
2.449976918387824
 31
0.0
  0
LINE
  5
108CA
330
1080E
100
AcDbEntity
  8
Footprint
100
AcDbLine
 10
7.890041863808658
 20
2.449976918387824
 30
0.0
 11
7.890041863808658
 21
1.599976918387823
 31
0.0
  0
LINE
  5
108CB
330
1080E
100
AcDbEntity
  8
Footprint
100
AcDbLine
 10
8.29001805019318
 20
2.449976918387824
 30
0.0
 11
8.29001805019318
 21
1.599976918387823
 31
0.0
  0
LINE
  5
108CC
330
1080E
100
AcDbEntity
  8
Footprint
100
AcDbLine
 10
7.890041863808658
 20
1.599976918387823
 30
0.0
 11
8.29001805019318
 21
1.599976918387823
 31
0.0
  0
LINE
  5
108CD
330
1080E
100
AcDbEntity
  8
Footprint
100
AcDbLine
 10
8.890041863808658
 20
2.449976918387824
 30
0.0
 11
9.29001805019318
 21
2.449976918387824
 31
0.0
  0
LINE
  5
108CE
330
1080E
100
AcDbEntity
  8
Footprint
100
AcDbLine
 10
8.890041863808658
 20
2.449976918387824
 30
0.0
 11
8.890041863808658
 21
1.599976918387824
 31
0.0
  0
LINE
  5
108CF
330
1080E
100
AcDbEntity
  8
Footprint
100
AcDbLine
 10
9.29001805019318
 20
2.449976918387824
 30
0.0
 11
9.29001805019318
 21
1.599976918387824
 31
0.0
  0
LINE
  5
108D0
330
1080E
100
AcDbEntity
  8
Footprint
100
AcDbLine
 10
8.890041863808658
 20
1.599976918387824
 30
0.0
 11
9.29001805019318
 21
1.599976918387824
 31
0.0
  0
LINE
  5
108D1
330
1080E
100
AcDbEntity
  8
Footprint
100
AcDbLine
 10
9.890041863808658
 20
2.449976918387824
 30
0.0
 11
10.29001805019318
 21
2.449976918387824
 31
0.0
  0
LINE
  5
108D2
330
1080E
100
AcDbEntity
  8
Footprint
100
AcDbLine
 10
9.890041863808658
 20
2.449976918387824
 30
0.0
 11
9.890041863808658
 21
1.599976918387824
 31
0.0
  0
LINE
  5
108D3
330
1080E
100
AcDbEntity
  8
Footprint
100
AcDbLine
 10
10.29001805019318
 20
2.449976918387824
 30
0.0
 11
10.29001805019318
 21
1.599976918387824
 31
0.0
  0
LINE
  5
108D4
330
1080E
100
AcDbEntity
  8
Footprint
100
AcDbLine
 10
9.890041863808658
 20
1.599976918387824
 30
0.0
 11
10.29001805019318
 21
1.599976918387824
 31
0.0
  0
LINE
  5
108D5
330
1080E
100
AcDbEntity
  8
Footprint
100
AcDbLine
 10
10.89004186380866
 20
2.449976918387825
 30
0.0
 11
11.29001805019318
 21
2.449976918387825
 31
0.0
  0
LINE
  5
108D6
330
1080E
100
AcDbEntity
  8
Footprint
100
AcDbLine
 10
10.89004186380866
 20
2.449976918387825
 30
0.0
 11
10.89004186380866
 21
1.599976918387824
 31
0.0
  0
LINE
  5
108D7
330
1080E
100
AcDbEntity
  8
Footprint
100
AcDbLine
 10
11.29001805019318
 20
2.449976918387825
 30
0.0
 11
11.29001805019318
 21
1.599976918387824
 31
0.0
  0
LINE
  5
108D8
330
1080E
100
AcDbEntity
  8
Footprint
100
AcDbLine
 10
10.89004186380866
 20
1.599976918387824
 30
0.0
 11
11.29001805019318
 21
1.599976918387824
 31
0.0
  0
LINE
  5
108D9
330
1080E
100
AcDbEntity
  8
Footprint
100
AcDbLine
 10
11.89004186380866
 20
2.449976918387825
 30
0.0
 11
12.29001805019318
 21
2.449976918387825
 31
0.0
  0
LINE
  5
108DA
330
1080E
100
AcDbEntity
  8
Footprint
100
AcDbLine
 10
11.89004186380866
 20
2.449976918387825
 30
0.0
 11
11.89004186380866
 21
1.599976918387824
 31
0.0
  0
LINE
  5
108DB
330
1080E
100
AcDbEntity
  8
Footprint
100
AcDbLine
 10
12.29001805019318
 20
2.449976918387825
 30
0.0
 11
12.29001805019318
 21
1.599976918387824
 31
0.0
  0
LINE
  5
108DC
330
1080E
100
AcDbEntity
  8
Footprint
100
AcDbLine
 10
11.89004186380866
 20
1.599976918387824
 30
0.0
 11
12.29001805019318
 21
1.599976918387824
 31
0.0
  0
LINE
  5
108DD
330
1080E
100
AcDbEntity
  8
Footprint
100
AcDbLine
 10
12.89004186380866
 20
2.449976918387825
 30
0.0
 11
13.29001805019318
 21
2.449976918387825
 31
0.0
  0
LINE
  5
108DE
330
1080E
100
AcDbEntity
  8
Footprint
100
AcDbLine
 10
12.89004186380866
 20
2.449976918387825
 30
0.0
 11
12.89004186380866
 21
1.599976918387824
 31
0.0
  0
LINE
  5
108DF
330
1080E
100
AcDbEntity
  8
Footprint
100
AcDbLine
 10
13.29001805019318
 20
2.449976918387825
 30
0.0
 11
13.29001805019318
 21
1.599976918387824
 31
0.0
  0
LINE
  5
108E0
330
1080E
100
AcDbEntity
  8
Footprint
100
AcDbLine
 10
12.89004186380866
 20
1.599976918387824
 30
0.0
 11
13.29001805019318
 21
1.599976918387824
 31
0.0
  0
LINE
  5
108E1
330
1080E
100
AcDbEntity
  8
Footprint
100
AcDbLine
 10
14.28456380581538
 20
5.099594321103479
 30
0.0
 11
14.88612662712642
 21
5.099594321103479
 31
0.0
  0
LINE
  5
108E2
330
1080E
100
AcDbEntity
  8
Footprint
100
AcDbLine
 10
14.88612662712642
 20
5.099594321103479
 30
0.0
 11
14.8861266271264
 21
4.249594321103479
 31
0.0
  0
LINE
  5
108E3
330
1080E
100
AcDbEntity
  8
Footprint
100
AcDbLine
 10
14.28456380581538
 20
4.249594321103479
 30
0.0
 11
14.28456380581538
 21
5.099594321103479
 31
0.0
  0
LINE
  5
108E4
330
1080E
100
AcDbEntity
  8
Footprint
100
AcDbLine
 10
14.28456380581538
 20
4.249594321103479
 30
0.0
 11
14.8861266271264
 21
4.249594321103479
 31
0.0
  0
LINE
  5
108E5
330
1080E
100
AcDbEntity
  8
Footprint
100
AcDbLine
 10
14.28456440178786
 20
2.449976918387823
 30
0.0
 11
14.88612722309889
 21
2.449976918387823
 31
0.0
  0
LINE
  5
108E6
330
1080E
100
AcDbEntity
  8
Footprint
100
AcDbLine
 10
14.28456440178786
 20
2.449976918387823
 30
0.0
 11
14.28456440178786
 21
1.599976918387824
 31
0.0
  0
LINE
  5
108E7
330
1080E
100
AcDbEntity
  8
Footprint
100
AcDbLine
 10
14.28456440178786
 20
1.599976918387824
 30
0.0
 11
14.88612722309891
 21
1.599976918387824
 31
0.0
  0
LINE
  5
108E8
330
1080E
100
AcDbEntity
  8
Footprint
100
AcDbLine
 10
14.88612722309891
 20
1.599976918387824
 30
0.0
 11
14.88612722309889
 21
2.449976918387823
 31
0.0
  0
ENDBLK
  5
108EA
330
1080E
100
AcDbEntity
  8
0
100
AcDbBlockEnd
  0
ENDSEC
  0
SECTION
  2
ENTITIES
  0
LINE
  5
1092F
330
1F
100
AcDbEntity
  8
Footprint
100
AcDbLine
 10
14.07351905083879
 20
-8.271065007054538
 30
0.0
 11
14.07069659558491
 21
-8.271065007054538
 31
0.0
  0
LINE
  5
10937
330
1F
100
AcDbEntity
  8
Footprint
100
AcDbLine
 10
13.25618514215307
 20
-5.390971990137225
 30
0.0
 11
13.25618514215307
 21
-4.540971990137225
 31
0.0
  0
LINE
  5
10938
330
1F
100
AcDbEntity
  8
Footprint
100
AcDbLine
 10
13.25618514215307
 20
-4.540971990137225
 30
0.0
 11
13.85774796346412
 21
-4.540971990137225
 31
0.0
  0
LINE
  5
10939
330
1F
100
AcDbEntity
  8
Footprint
100
AcDbLine
 10
13.85774796346412
 20
-4.540971990137225
 30
0.0
 11
13.8577479634641
 21
-5.390971990137225
 31
0.0
  0
LINE
  5
1093A
330
1F
100
AcDbEntity
  8
Footprint
100
AcDbLine
 10
13.25618514215307
 20
-5.390971990137225
 30
0.0
 11
13.8577479634641
 21
-5.390971990137225
 31
0.0
  0
LINE
  5
1093B
330
1F
100
AcDbEntity
  8
Footprint
100
AcDbLine
 10
14.35936079589607
 20
-8.040589392852878
 30
0.0
 11
14.75933698228059
 21
-8.040589392852878
 31
0.0
  0
LINE
  5
1093C
330
1F
100
AcDbEntity
  8
Footprint
100
AcDbLine
 10
14.35936079589607
 20
-7.190589392852877
 30
0.0
 11
14.35936079589607
 21
-8.040589392852878
 31
0.0
  0
LINE
  5
1093D
330
1F
100
AcDbEntity
  8
Footprint
100
AcDbLine
 10
14.35936079589607
 20
-7.190589392852877
 30
0.0
 11
14.75933698228059
 21
-7.190589392852877
 31
0.0
  0
LINE
  5
1093E
330
1F
100
AcDbEntity
  8
Footprint
100
AcDbLine
 10
14.75933698228059
 20
-7.190589392852877
 30
0.0
 11
14.75933698228059
 21
-8.040589392852878
 31
0.0
  0
LINE
  5
1095F
330
1F
100
AcDbEntity
  8
Footprint
100
AcDbLine
 10
14.35936079589607
 20
-7.315589392852877
 30
0.0
 11
14.35936079589607
 21
-7.915589392852878
 31
0.0
  0
LINE
  5
10960
330
1F
100
AcDbEntity
  8
Footprint
100
AcDbLine
 10
14.75933698228059
 20
-7.315589392852877
 30
0.0
 11
14.75933698228059
 21
-7.915589392852878
 31
0.0
  0
LINE
  5
10961
330
1F
100
AcDbEntity
  8
Footprint
100
AcDbLine
 10
14.35936079589607
 20
-7.315589392852877
 30
0.0
 11
14.35936079589607
 21
-7.915589392852878
 31
0.0
  0
LINE
  5
10962
330
1F
100
AcDbEntity
  8
Footprint
100
AcDbLine
 10
14.75933698228059
 20
-7.315589392852877
 30
0.0
 11
14.75933698228059
 21
-7.915589392852878
 31
0.0
  0
LINE
  5
10963
330
1F
100
AcDbEntity
  8
Footprint
100
AcDbLine
 10
14.35936079589607
 20
-7.315589392852877
 30
0.0
 11
14.35936079589607
 21
-7.915589392852878
 31
0.0
  0
LINE
  5
10964
330
1F
100
AcDbEntity
  8
Footprint
100
AcDbLine
 10
14.75933698228059
 20
-7.315589392852877
 30
0.0
 11
14.75933698228059
 21
-7.915589392852878
 31
0.0
  0
LINE
  5
10965
330
1F
100
AcDbEntity
  8
Footprint
100
AcDbLine
 10
10.4693189320874
 20
-3.940914025366694
 30
0.0
 11
27.1693189320874
 21
-3.940914025366695
 31
0.0
  0
LINE
  5
10966
330
1F
100
AcDbEntity
  8
Footprint
100
AcDbLine
 10
27.1693189320874
 20
-3.940914025366695
 30
0.0
 11
27.1693189320874
 21
-7.727427780256692
 31
0.0
  0
LINE
  5
10967
330
1F
100
AcDbEntity
  8
Footprint
100
AcDbLine
 10
27.1693189320874
 20
-7.727427780256692
 30
0.0
 11
23.12545349197304
 21
-8.6405663112407
 31
0.0
  0
LINE
  5
10968
330
1F
100
AcDbEntity
  8
Footprint
100
AcDbLine
 10
23.12545349197304
 20
-8.6405663112407
 30
0.0
 11
14.513184675416
 21
-8.6405663112407
 31
0.0
  0
LINE
  5
10969
330
1F
100
AcDbEntity
  8
Footprint
100
AcDbLine
 10
14.513184675416
 20
-8.6405663112407
 30
0.0
 11
10.4693189320874
 21
-7.727427799574343
 31
0.0
  0
LINE
  5
1096A
330
1F
100
AcDbEntity
  8
Footprint
100
AcDbLine
 10
10.4693189320874
 20
-7.727427799574343
 30
0.0
 11
10.4693189320874
 21
-3.940914025366694
 31
0.0
  0
LINE
  5
1096B
330
1F
100
AcDbEntity
  8
Footprint
100
AcDbLine
 10
9.469318932087406
 20
-9.6405663112407
 30
0.0
 11
9.469318932087397
 21
-2.940914025366692
 31
0.0
  0
LINE
  5
1096C
330
1F
100
AcDbEntity
  8
Footprint
100
AcDbLine
 10
28.1693189320874
 20
-2.940914025366695
 30
0.0
 11
28.1693189320874
 21
-9.6405663112407
 31
0.0
  0
LINE
  5
1096D
330
1F
100
AcDbEntity
  8
Footprint
100
AcDbLine
 10
9.469318932087397
 20
-2.940914025366692
 30
0.0
 11
28.1693189320874
 21
-2.940914025366695
 31
0.0
  0
LINE
  5
1096E
330
1F
100
AcDbEntity
  8
Footprint
100
AcDbLine
 10
28.1693189320874
 20
-9.6405663112407
 30
0.0
 11
9.469318932087408
 21
-9.6405663112407
 31
0.0
  0
LINE
  5
10973
330
1F
100
AcDbEntity
  8
Footprint
100
AcDbLine
 10
13.85774796346412
 20
-8.040589392852873
 30
0.0
 11
13.8577479634641
 21
-7.190589392852874
 31
0.0
  0
LINE
  5
10974
330
1F
100
AcDbEntity
  8
Footprint
100
AcDbLine
 10
13.25618514215307
 20
-7.190589392852874
 30
0.0
 11
13.25618514215307
 21
-8.040589392852873
 31
0.0
  0
LINE
  5
10975
330
1F
100
AcDbEntity
  8
Footprint
100
AcDbLine
 10
13.25618514215307
 20
-7.190589392852874
 30
0.0
 11
13.8577479634641
 21
-7.190589392852874
 31
0.0
  0
LINE
  5
10976
330
1F
100
AcDbEntity
  8
Footprint
100
AcDbLine
 10
13.25618514215307
 20
-8.040589392852873
 30
0.0
 11
13.85774796346412
 21
-8.040589392852873
 31
0.0
  0
LINE
  5
10977
330
1F
100
AcDbEntity
  8
Footprint
100
AcDbLine
 10
14.85759912204629
 20
-5.390971990137221
 30
0.0
 11
15.25757530843081
 21
-5.390971990137221
 31
0.0
  0
LINE
  5
10978
330
1F
100
AcDbEntity
  8
Footprint
100
AcDbLine
 10
15.25757530843081
 20
-5.265971990137221
 30
0.0
 11
15.25757530843081
 21
-4.66597199013722
 31
0.0
  0
LINE
  5
10979
330
1F
100
AcDbEntity
  8
Footprint
100
AcDbLine
 10
15.25757530843081
 20
-5.265971990137221
 30
0.0
 11
15.25757530843081
 21
-4.66597199013722
 31
0.0
  0
LINE
  5
1097A
330
1F
100
AcDbEntity
  8
Footprint
100
AcDbLine
 10
15.25757530843081
 20
-5.265971990137221
 30
0.0
 11
15.25757530843081
 21
-4.66597199013722
 31
0.0
  0
LINE
  5
1097B
330
1F
100
AcDbEntity
  8
Footprint
100
AcDbLine
 10
15.25757530843081
 20
-5.390971990137221
 30
0.0
 11
15.25757530843081
 21
-4.540971990137219
 31
0.0
  0
LINE
  5
1097C
330
1F
100
AcDbEntity
  8
Footprint
100
AcDbLine
 10
14.85759912204629
 20
-5.390971990137221
 30
0.0
 11
14.85759912204629
 21
-4.540971990137221
 31
0.0
  0
LINE
  5
1097D
330
1F
100
AcDbEntity
  8
Footprint
100
AcDbLine
 10
14.85759912204629
 20
-4.540971990137221
 30
0.0
 11
15.25757530843081
 21
-4.540971990137219
 31
0.0
  0
LINE
  5
1097E
330
1F
100
AcDbEntity
  8
Footprint
100
AcDbLine
 10
15.85747409424397
 20
-5.390971990137221
 30
0.0
 11
15.85747409424397
 21
-4.540971990137221
 31
0.0
  0
LINE
  5
1097F
330
1F
100
AcDbEntity
  8
Footprint
100
AcDbLine
 10
15.85747409424397
 20
-4.540971990137221
 30
0.0
 11
16.25745028062849
 21
-4.540971990137219
 31
0.0
  0
LINE
  5
10980
330
1F
100
AcDbEntity
  8
Footprint
100
AcDbLine
 10
16.25745028062849
 20
-5.390971990137221
 30
0.0
 11
16.25745028062849
 21
-4.540971990137219
 31
0.0
  0
LINE
  5
10981
330
1F
100
AcDbEntity
  8
Footprint
100
AcDbLine
 10
15.85747409424397
 20
-5.390971990137221
 30
0.0
 11
16.25745028062849
 21
-5.390971990137221
 31
0.0
  0
LINE
  5
10982
330
1F
100
AcDbEntity
  8
Footprint
100
AcDbLine
 10
16.85734906644165
 20
-5.39097199013722
 30
0.0
 11
16.85734906644165
 21
-4.54097199013722
 31
0.0
  0
LINE
  5
10983
330
1F
100
AcDbEntity
  8
Footprint
100
AcDbLine
 10
16.85734906644165
 20
-4.54097199013722
 30
0.0
 11
17.25732525282617
 21
-4.540971990137218
 31
0.0
  0
LINE
  5
10984
330
1F
100
AcDbEntity
  8
Footprint
100
AcDbLine
 10
17.25732525282617
 20
-5.39097199013722
 30
0.0
 11
17.25732525282617
 21
-4.540971990137218
 31
0.0
  0
LINE
  5
10985
330
1F
100
AcDbEntity
  8
Footprint
100
AcDbLine
 10
16.85734906644165
 20
-5.39097199013722
 30
0.0
 11
17.25732525282617
 21
-5.39097199013722
 31
0.0
  0
LINE
  5
10986
330
1F
100
AcDbEntity
  8
Footprint
100
AcDbLine
 10
17.85722403863933
 20
-5.39097199013722
 30
0.0
 11
17.85722403863933
 21
-4.54097199013722
 31
0.0
  0
LINE
  5
10987
330
1F
100
AcDbEntity
  8
Footprint
100
AcDbLine
 10
17.85722403863933
 20
-4.54097199013722
 30
0.0
 11
18.25720022502385
 21
-4.540971990137218
 31
0.0
  0
LINE
  5
10988
330
1F
100
AcDbEntity
  8
Footprint
100
AcDbLine
 10
18.25720022502385
 20
-5.39097199013722
 30
0.0
 11
18.25720022502385
 21
-4.540971990137218
 31
0.0
  0
LINE
  5
10989
330
1F
100
AcDbEntity
  8
Footprint
100
AcDbLine
 10
17.85722403863933
 20
-5.39097199013722
 30
0.0
 11
18.25720022502385
 21
-5.39097199013722
 31
0.0
  0
LINE
  5
1098A
330
1F
100
AcDbEntity
  8
Footprint
100
AcDbLine
 10
18.85709901083701
 20
-5.39097199013722
 30
0.0
 11
18.85709901083701
 21
-4.54097199013722
 31
0.0
  0
LINE
  5
1098B
330
1F
100
AcDbEntity
  8
Footprint
100
AcDbLine
 10
18.85709901083701
 20
-4.54097199013722
 30
0.0
 11
19.25707519722153
 21
-4.540971990137218
 31
0.0
  0
LINE
  5
1098C
330
1F
100
AcDbEntity
  8
Footprint
100
AcDbLine
 10
19.25707519722154
 20
-5.39097199013722
 30
0.0
 11
19.25707519722153
 21
-4.540971990137218
 31
0.0
  0
LINE
  5
1098D
330
1F
100
AcDbEntity
  8
Footprint
100
AcDbLine
 10
18.85709901083701
 20
-5.39097199013722
 30
0.0
 11
19.25707519722154
 21
-5.39097199013722
 31
0.0
  0
LINE
  5
1098E
330
1F
100
AcDbEntity
  8
Footprint
100
AcDbLine
 10
19.8569739830347
 20
-5.39097199013722
 30
0.0
 11
19.85697398303469
 21
-4.54097199013722
 31
0.0
  0
LINE
  5
1098F
330
1F
100
AcDbEntity
  8
Footprint
100
AcDbLine
 10
19.85697398303469
 20
-4.54097199013722
 30
0.0
 11
20.25695016941921
 21
-4.540971990137218
 31
0.0
  0
LINE
  5
10990
330
1F
100
AcDbEntity
  8
Footprint
100
AcDbLine
 10
20.25695016941922
 20
-5.39097199013722
 30
0.0
 11
20.25695016941921
 21
-4.540971990137218
 31
0.0
  0
LINE
  5
10991
330
1F
100
AcDbEntity
  8
Footprint
100
AcDbLine
 10
19.8569739830347
 20
-5.39097199013722
 30
0.0
 11
20.25695016941922
 21
-5.39097199013722
 31
0.0
  0
LINE
  5
10992
330
1F
100
AcDbEntity
  8
Footprint
100
AcDbLine
 10
20.85684895523238
 20
-5.390971990137219
 30
0.0
 11
20.85684895523237
 21
-4.540971990137219
 31
0.0
  0
LINE
  5
10993
330
1F
100
AcDbEntity
  8
Footprint
100
AcDbLine
 10
20.85684895523237
 20
-4.540971990137219
 30
0.0
 11
21.25682514161689
 21
-4.540971990137217
 31
0.0
  0
LINE
  5
10994
330
1F
100
AcDbEntity
  8
Footprint
100
AcDbLine
 10
21.2568251416169
 20
-5.390971990137219
 30
0.0
 11
21.25682514161689
 21
-4.540971990137217
 31
0.0
  0
LINE
  5
10995
330
1F
100
AcDbEntity
  8
Footprint
100
AcDbLine
 10
20.85684895523238
 20
-5.390971990137219
 30
0.0
 11
21.2568251416169
 21
-5.390971990137219
 31
0.0
  0
LINE
  5
10996
330
1F
100
AcDbEntity
  8
Footprint
100
AcDbLine
 10
21.85672392743006
 20
-5.390971990137219
 30
0.0
 11
21.85672392743005
 21
-4.540971990137219
 31
0.0
  0
LINE
  5
10997
330
1F
100
AcDbEntity
  8
Footprint
100
AcDbLine
 10
21.85672392743005
 20
-4.540971990137219
 30
0.0
 11
22.25670011381457
 21
-4.540971990137217
 31
0.0
  0
LINE
  5
10998
330
1F
100
AcDbEntity
  8
Footprint
100
AcDbLine
 10
22.25670011381458
 20
-5.390971990137219
 30
0.0
 11
22.25670011381457
 21
-4.540971990137217
 31
0.0
  0
LINE
  5
10999
330
1F
100
AcDbEntity
  8
Footprint
100
AcDbLine
 10
21.85672392743006
 20
-5.390971990137219
 30
0.0
 11
22.25670011381458
 21
-5.390971990137219
 31
0.0
  0
LINE
  5
1099A
330
1F
100
AcDbEntity
  8
Footprint
100
AcDbLine
 10
22.85659889962774
 20
-5.390971990137219
 30
0.0
 11
22.85659889962773
 21
-4.540971990137219
 31
0.0
  0
LINE
  5
1099B
330
1F
100
AcDbEntity
  8
Footprint
100
AcDbLine
 10
22.85659889962773
 20
-4.540971990137219
 30
0.0
 11
23.25657508601225
 21
-4.540971990137217
 31
0.0
  0
LINE
  5
1099C
330
1F
100
AcDbEntity
  8
Footprint
100
AcDbLine
 10
23.25657508601226
 20
-5.390971990137219
 30
0.0
 11
23.25657508601225
 21
-4.540971990137217
 31
0.0
  0
LINE
  5
1099D
330
1F
100
AcDbEntity
  8
Footprint
100
AcDbLine
 10
22.85659889962774
 20
-5.390971990137219
 30
0.0
 11
23.25657508601226
 21
-5.390971990137219
 31
0.0
  0
LINE
  5
1099E
330
1F
100
AcDbEntity
  8
Footprint
100
AcDbLine
 10
15.35936079589607
 20
-7.190589392852877
 30
0.0
 11
15.75933698228059
 21
-7.190589392852877
 31
0.0
  0
LINE
  5
1099F
330
1F
100
AcDbEntity
  8
Footprint
100
AcDbLine
 10
15.35936079589607
 20
-7.190589392852877
 30
0.0
 11
15.35936079589607
 21
-8.040589392852878
 31
0.0
  0
LINE
  5
109A0
330
1F
100
AcDbEntity
  8
Footprint
100
AcDbLine
 10
15.75933698228059
 20
-7.190589392852877
 30
0.0
 11
15.75933698228059
 21
-8.040589392852878
 31
0.0
  0
LINE
  5
109A1
330
1F
100
AcDbEntity
  8
Footprint
100
AcDbLine
 10
15.35936079589607
 20
-8.040589392852878
 30
0.0
 11
15.75933698228059
 21
-8.040589392852878
 31
0.0
  0
LINE
  5
109A2
330
1F
100
AcDbEntity
  8
Footprint
100
AcDbLine
 10
16.35936079589607
 20
-7.190589392852877
 30
0.0
 11
16.75933698228059
 21
-7.190589392852877
 31
0.0
  0
LINE
  5
109A3
330
1F
100
AcDbEntity
  8
Footprint
100
AcDbLine
 10
16.35936079589607
 20
-7.190589392852877
 30
0.0
 11
16.35936079589607
 21
-8.040589392852878
 31
0.0
  0
LINE
  5
109A4
330
1F
100
AcDbEntity
  8
Footprint
100
AcDbLine
 10
16.75933698228059
 20
-7.190589392852877
 30
0.0
 11
16.75933698228059
 21
-8.040589392852878
 31
0.0
  0
LINE
  5
109A5
330
1F
100
AcDbEntity
  8
Footprint
100
AcDbLine
 10
16.35936079589607
 20
-8.040589392852878
 30
0.0
 11
16.75933698228059
 21
-8.040589392852878
 31
0.0
  0
LINE
  5
109A6
330
1F
100
AcDbEntity
  8
Footprint
100
AcDbLine
 10
17.35936079589607
 20
-7.190589392852877
 30
0.0
 11
17.75933698228059
 21
-7.190589392852877
 31
0.0
  0
LINE
  5
109A7
330
1F
100
AcDbEntity
  8
Footprint
100
AcDbLine
 10
17.35936079589607
 20
-7.190589392852877
 30
0.0
 11
17.35936079589607
 21
-8.040589392852878
 31
0.0
  0
LINE
  5
109A8
330
1F
100
AcDbEntity
  8
Footprint
100
AcDbLine
 10
17.75933698228059
 20
-7.190589392852877
 30
0.0
 11
17.75933698228059
 21
-8.040589392852878
 31
0.0
  0
LINE
  5
109A9
330
1F
100
AcDbEntity
  8
Footprint
100
AcDbLine
 10
17.35936079589607
 20
-8.040589392852878
 30
0.0
 11
17.75933698228059
 21
-8.040589392852878
 31
0.0
  0
LINE
  5
109AA
330
1F
100
AcDbEntity
  8
Footprint
100
AcDbLine
 10
18.35936079589607
 20
-7.190589392852877
 30
0.0
 11
18.75933698228059
 21
-7.190589392852877
 31
0.0
  0
LINE
  5
109AB
330
1F
100
AcDbEntity
  8
Footprint
100
AcDbLine
 10
18.35936079589607
 20
-7.190589392852877
 30
0.0
 11
18.35936079589607
 21
-8.040589392852876
 31
0.0
  0
LINE
  5
109AC
330
1F
100
AcDbEntity
  8
Footprint
100
AcDbLine
 10
18.75933698228059
 20
-7.190589392852877
 30
0.0
 11
18.75933698228059
 21
-8.040589392852876
 31
0.0
  0
LINE
  5
109AD
330
1F
100
AcDbEntity
  8
Footprint
100
AcDbLine
 10
18.35936079589607
 20
-8.040589392852876
 30
0.0
 11
18.75933698228059
 21
-8.040589392852876
 31
0.0
  0
LINE
  5
109AE
330
1F
100
AcDbEntity
  8
Footprint
100
AcDbLine
 10
19.35936079589607
 20
-7.190589392852877
 30
0.0
 11
19.75933698228059
 21
-7.190589392852877
 31
0.0
  0
LINE
  5
109AF
330
1F
100
AcDbEntity
  8
Footprint
100
AcDbLine
 10
19.35936079589607
 20
-7.190589392852877
 30
0.0
 11
19.35936079589607
 21
-8.040589392852876
 31
0.0
  0
LINE
  5
109B0
330
1F
100
AcDbEntity
  8
Footprint
100
AcDbLine
 10
19.75933698228059
 20
-7.190589392852877
 30
0.0
 11
19.75933698228059
 21
-8.040589392852876
 31
0.0
  0
LINE
  5
109B1
330
1F
100
AcDbEntity
  8
Footprint
100
AcDbLine
 10
19.35936079589607
 20
-8.040589392852876
 30
0.0
 11
19.75933698228059
 21
-8.040589392852876
 31
0.0
  0
LINE
  5
109B2
330
1F
100
AcDbEntity
  8
Footprint
100
AcDbLine
 10
20.35936079589607
 20
-7.190589392852876
 30
0.0
 11
20.75933698228059
 21
-7.190589392852876
 31
0.0
  0
LINE
  5
109B3
330
1F
100
AcDbEntity
  8
Footprint
100
AcDbLine
 10
20.35936079589607
 20
-7.190589392852876
 30
0.0
 11
20.35936079589607
 21
-8.040589392852876
 31
0.0
  0
LINE
  5
109B4
330
1F
100
AcDbEntity
  8
Footprint
100
AcDbLine
 10
20.75933698228059
 20
-7.190589392852876
 30
0.0
 11
20.75933698228059
 21
-8.040589392852876
 31
0.0
  0
LINE
  5
109B5
330
1F
100
AcDbEntity
  8
Footprint
100
AcDbLine
 10
20.35936079589607
 20
-8.040589392852876
 30
0.0
 11
20.75933698228059
 21
-8.040589392852876
 31
0.0
  0
LINE
  5
109B6
330
1F
100
AcDbEntity
  8
Footprint
100
AcDbLine
 10
21.35936079589607
 20
-7.190589392852876
 30
0.0
 11
21.75933698228059
 21
-7.190589392852876
 31
0.0
  0
LINE
  5
109B7
330
1F
100
AcDbEntity
  8
Footprint
100
AcDbLine
 10
21.35936079589607
 20
-7.190589392852876
 30
0.0
 11
21.35936079589607
 21
-8.040589392852876
 31
0.0
  0
LINE
  5
109B8
330
1F
100
AcDbEntity
  8
Footprint
100
AcDbLine
 10
21.75933698228059
 20
-7.190589392852876
 30
0.0
 11
21.75933698228059
 21
-8.040589392852876
 31
0.0
  0
LINE
  5
109B9
330
1F
100
AcDbEntity
  8
Footprint
100
AcDbLine
 10
21.35936079589607
 20
-8.040589392852876
 30
0.0
 11
21.75933698228059
 21
-8.040589392852876
 31
0.0
  0
LINE
  5
109BA
330
1F
100
AcDbEntity
  8
Footprint
100
AcDbLine
 10
22.35936079589607
 20
-7.190589392852876
 30
0.0
 11
22.75933698228059
 21
-7.190589392852876
 31
0.0
  0
LINE
  5
109BB
330
1F
100
AcDbEntity
  8
Footprint
100
AcDbLine
 10
22.35936079589607
 20
-7.190589392852876
 30
0.0
 11
22.35936079589607
 21
-8.040589392852876
 31
0.0
  0
LINE
  5
109BC
330
1F
100
AcDbEntity
  8
Footprint
100
AcDbLine
 10
22.75933698228059
 20
-7.190589392852876
 30
0.0
 11
22.75933698228059
 21
-8.040589392852876
 31
0.0
  0
LINE
  5
109BD
330
1F
100
AcDbEntity
  8
Footprint
100
AcDbLine
 10
22.35936079589607
 20
-8.040589392852876
 30
0.0
 11
22.75933698228059
 21
-8.040589392852876
 31
0.0
  0
LINE
  5
109BE
330
1F
100
AcDbEntity
  8
Footprint
100
AcDbLine
 10
23.75388273790279
 20
-4.540971990137222
 30
0.0
 11
24.35544555921383
 21
-4.540971990137222
 31
0.0
  0
LINE
  5
109BF
330
1F
100
AcDbEntity
  8
Footprint
100
AcDbLine
 10
24.35544555921383
 20
-4.540971990137222
 30
0.0
 11
24.35544555921381
 21
-5.390971990137222
 31
0.0
  0
LINE
  5
109C0
330
1F
100
AcDbEntity
  8
Footprint
100
AcDbLine
 10
23.75388273790279
 20
-5.390971990137222
 30
0.0
 11
23.75388273790279
 21
-4.540971990137222
 31
0.0
  0
LINE
  5
109C1
330
1F
100
AcDbEntity
  8
Footprint
100
AcDbLine
 10
23.75388273790279
 20
-5.390971990137222
 30
0.0
 11
24.35544555921381
 21
-5.390971990137222
 31
0.0
  0
LINE
  5
109C2
330
1F
100
AcDbEntity
  8
Footprint
100
AcDbLine
 10
23.75388333387527
 20
-7.190589392852877
 30
0.0
 11
24.3554461551863
 21
-7.190589392852877
 31
0.0
  0
LINE
  5
109C3
330
1F
100
AcDbEntity
  8
Footprint
100
AcDbLine
 10
23.75388333387527
 20
-7.190589392852877
 30
0.0
 11
23.75388333387527
 21
-8.040589392852876
 31
0.0
  0
LINE
  5
109C4
330
1F
100
AcDbEntity
  8
Footprint
100
AcDbLine
 10
23.75388333387527
 20
-8.040589392852876
 30
0.0
 11
24.35544615518631
 21
-8.040589392852876
 31
0.0
  0
LINE
  5
109C5
330
1F
100
AcDbEntity
  8
Footprint
100
AcDbLine
 10
24.35544615518631
 20
-8.040589392852876
 30
0.0
 11
24.3554461551863
 21
-7.190589392852877
 31
0.0
  0
ENDSEC
  0
SECTION
  2
OBJECTS
  0
DICTIONARY
  5
C
330
0
100
AcDbDictionary
281
     1
  3
ACAD_DETAILVIEWSTYLE
350
1009C
  3
ACAD_GROUP
350
D
  3
ACAD_LAYOUT
350
10073
  3
ACAD_MATERIAL
350
1008F
  3
ACAD_MLEADERSTYLE
350
10095
  3
ACAD_MLINESTYLE
350
17
  3
ACAD_PLOTSETTINGS
350
1004E
  3
ACAD_PLOTSTYLENAME
350
1004F
  3
ACAD_SCALELIST
350
10051
  3
ACAD_SECTIONVIEWSTYLE
350
1009D
  3
ACAD_TABLESTYLE
350
10093
  3
ACAD_VISUALSTYLE
350
10076
  3
ACDB_RECOMPOSE_DATA
350
109CE
  3
AcDbVariableDictionary
350
10097
  3
APPDATA
350
1004C
  0
SUN
  5
1014D
330
10001
100
AcDbSun
 90
        1
290
     0
 63
     7
421
 16777215
 40
1.0
291
     1
 91
  2455826
 92
 54000000
292
     0
 70
     2
 71
   256
280
     1
  0
DICTIONARY
  5
1009E
330
2
100
AcDbDictionary
280
     1
281
     1
  3
ACAD_LAYERSTATES
360
1009F
  3
ACLYDICTIONARY
360
109CB
  0
DICTIONARY
  5
10236
330
1F
100
AcDbDictionary
280
     1
281
     1
  3
ACAD_SORTENTS
360
10237
  0
DICTIONARY
  5
1009C
102
{ACAD_REACTORS
330
C
102
}
330
C
100
AcDbDictionary
281
     1
  0
DICTIONARY
  5
D
330
C
100
AcDbDictionary
281
     1
  0
DICTIONARY
  5
10073
102
{ACAD_REACTORS
330
C
102
}
330
C
100
AcDbDictionary
281
     1
  3
Model
350
10074
  3
Sheet1
350
10075
  0
DICTIONARY
  5
1008F
102
{ACAD_REACTORS
330
C
102
}
330
C
100
AcDbDictionary
281
     1
  3
ByBlock
350
10091
  3
ByLayer
350
10090
  3
Global
350
10092
  0
DICTIONARY
  5
10095
102
{ACAD_REACTORS
330
C
102
}
330
C
100
AcDbDictionary
281
     1
  3
Standard
350
10096
  0
DICTIONARY
  5
17
330
C
100
AcDbDictionary
281
     1
  3
STANDARD
350
10002
  0
DICTIONARY
  5
1004E
102
{ACAD_REACTORS
330
C
102
}
330
C
100
AcDbDictionary
281
     1
  0
ACDBDICTIONARYWDFLT
  5
1004F
102
{ACAD_REACTORS
330
C
102
}
330
C
100
AcDbDictionary
281
     1
  3
Normal
350
10050
100
AcDbDictionaryWithDefault
340
10050
  0
DICTIONARY
  5
10051
102
{ACAD_REACTORS
330
C
102
}
330
C
100
AcDbDictionary
281
     1
  3
A0
350
10052
  3
A1
350
10053
  3
A2
350
10054
  3
A3
350
10055
  3
A4
350
10056
  3
A5
350
10057
  3
A6
350
10058
  3
A7
350
10059
  3
A8
350
1005A
  3
A9
350
1005B
  3
B0
350
1005C
  3
B1
350
1005D
  3
B2
350
1005E
  3
B3
350
1005F
  3
B4
350
10060
  3
B5
350
10061
  3
B6
350
10062
  3
B7
350
10063
  3
B8
350
10064
  3
B9
350
10065
  3
C0
350
10066
  3
C1
350
10067
  3
C2
350
10068
  3
C3
350
10069
  3
C4
350
1006A
  3
C5
350
1006B
  3
C6
350
1006C
  3
C7
350
1006D
  3
C8
350
1006E
  3
C9
350
1006F
  3
D0
350
10070
  3
D1
350
10071
  3
D2
350
10072
  0
DICTIONARY
  5
1009D
102
{ACAD_REACTORS
330
C
102
}
330
C
100
AcDbDictionary
281
     1
  0
DICTIONARY
  5
10093
102
{ACAD_REACTORS
330
C
102
}
330
C
100
AcDbDictionary
281
     1
  3
Standard
350
10094
  0
DICTIONARY
  5
10076
102
{ACAD_REACTORS
330
C
102
}
330
C
100
AcDbDictionary
281
     1
  3
2dWireframe
350
1007B
  3
Basic
350
1007E
  3
Brighten
350
10082
  3
ColorChange
350
10086
  3
Conceptual
350
10080
  3
Dim
350
10081
  3
EdgeColorOff
350
10089
  3
Facepattern
350
10085
  3
Flat
350
10077
  3
FlatWithEdges
350
10078
  3
Gouraud
350
10079
  3
GouraudWithEdges
350
1007A
  3
Hidden
350
1007D
  3
JitterOff
350
10087
  3
Linepattern
350
10084
  3
OverhangOff
350
10088
  3
Realistic
350
1007F
  3
Shaded
350
1008E
  3
Shaded with edges
350
1008D
  3
Shades of Gray
350
1008A
  3
Sketchy
350
1008B
  3
Thicken
350
10083
  3
Wireframe
350
1007C
  3
X-Ray
350
1008C
  0
XRECORD
  5
109CE
102
{ACAD_REACTORS
330
C
102
}
330
C
100
AcDbXrecord
280
     1
 90
        1
330
10094
  0
DICTIONARY
  5
10097
102
{ACAD_REACTORS
330
C
102
}
330
C
100
AcDbDictionary
281
     1
  3
CANNOSCALE
350
10098
  3
CMLEADERSTYLE
350
1009A
  3
CTABLESTYLE
350
10099
  3
MSLTSCALE
350
1009B
  0
DICTIONARY
  5
1004C
102
{ACAD_REACTORS
330
C
102
}
330
C
100
AcDbDictionary
281
     1
  0
DICTIONARY
  5
1009F
102
{ACAD_REACTORS
330
1009E
102
}
330
1009E
100
AcDbDictionary
281
     1
  0
DICTIONARY
  5
109CB
102
{ACAD_REACTORS
330
1009E
102
}
330
1009E
100
AcDbDictionary
281
     1
1001
ACAD
1000
<All
  0
SORTENTSTABLE
  5
10237
102
{ACAD_REACTORS
330
10236
102
}
330
10236
100
AcDbSortentsTable
330
1F
331
0
  5
101FF
  0
LAYOUT
  5
10074
102
{ACAD_REACTORS
330
10073
102
}
330
10073
100
AcDbPlotSettings
  1

  2
none_device
  4
Letter_(8.50_x_11.00_Inches)
  6

 40
6.35
 41
6.35
 42
6.35
 43
6.35
 44
215.9
 45
279.4
 46
0.0
 47
0.0
 48
0.0
 49
0.0
140
0.0
141
0.0
142
1.0
143
2.75253807106599
 70
  1712
 72
     0
 73
     0
 74
     0
  7

 75
     0
 76
     0
 77
     2
 78
   300
147
0.3633010603964961
148
481.514311807664
149
136.0736755631344
100
AcDbLayout
  1
Model
 70
     1
 71
     0
 10
0.0
 20
0.0
 11
12.0
 21
9.0
 12
0.0
 22
0.0
 32
0.0
 14
9.469318932087399
 24
-9.6405663112407
 34
0.0
 15
28.1693189320874
 25
-2.940914025366692
 35
0.0
146
0.0
 13
0.0
 23
0.0
 33
0.0
 16
1.0
 26
0.0
 36
0.0
 17
0.0
 27
1.0
 37
0.0
 76
     0
330
1F
331
10001
  0
LAYOUT
  5
10075
102
{ACAD_REACTORS
330
10073
102
}
330
10073
100
AcDbPlotSettings
  1

  2
none_device
  4

  6

 40
0.0
 41
0.0
 42
0.0
 43
0.0
 44
0.0
 45
0.0
 46
0.0
 47
0.0
 48
0.0
 49
0.0
140
0.0
141
0.0
142
1.0
143
1.0
 70
   688
 72
     0
 73
     0
 74
     5
  7

 75
    16
 76
     0
 77
     2
 78
   300
147
1.0
148
0.0
149
0.0
100
AcDbLayout
  1
Sheet1
 70
     1
 71
     1
 10
0.0
 20
0.0
 11
0.0
 21
0.0
 12
0.0
 22
0.0
 32
0.0
 14
1.000000000000000E+20
 24
1.000000000000000E+20
 34
1.000000000000000E+20
 15
-1.000000000000000E+20
 25
-1.000000000000000E+20
 35
-1.000000000000000E+20
146
0.0
 13
0.0
 23
0.0
 33
0.0
 16
1.0
 26
0.0
 36
0.0
 17
0.0
 27
1.0
 37
0.0
 76
     0
330
1B
  0
MATERIAL
  5
10091
102
{ACAD_REACTORS
330
1008F
102
}
330
1008F
100
AcDbMaterial
  1
ByBlock
 72
     1
 94
      127
  0
MATERIAL
  5
10090
102
{ACAD_REACTORS
330
1008F
102
}
330
1008F
100
AcDbMaterial
  1
ByLayer
 72
     1
 94
      127
  0
MATERIAL
  5
10092
102
{ACAD_REACTORS
330
1008F
102
}
330
1008F
100
AcDbMaterial
  1
Global
 72
     1
 94
      127
  0
MLEADERSTYLE
  5
10096
102
{ACAD_REACTORS
330
10095
102
}
330
10095
100
AcDbMLeaderStyle
179
     2
170
     2
171
     1
172
     0
 90
        2
 40
0.0
 41
0.0
173
     1
 91
-1056964608
340
14
 92
       -2
290
     1
 42
0.09
291
     1
 43
0.36
  3
Standard
341
0
 44
0.18
300

342
11
174
     1
178
     1
175
     1
176
     0
 93
-1056964608
 45
0.18
292
     0
297
     0
 46
0.18
343
0
 94
-1056964608
 47
1.0
 49
1.0
140
1.0
293
     1
141
0.0
294
     1
177
     0
142
1.0
295
     0
296
     0
143
0.125
271
     0
272
     9
273
     9
298
     0
  0
MLINESTYLE
  5
10002
102
{ACAD_REACTORS
330
17
102
}
330
17
100
AcDbMlineStyle
  2
Standard
 70
     0
  3

 62
   256
 51
90.0
 52
90.0
 71
     2
 49
0.5
 62
   256
  6
BYLAYER
 49
-0.5
 62
   256
  6
BYLAYER
  0
ACDBPLACEHOLDER
  5
10050
102
{ACAD_REACTORS
330
1004F
102
}
330
1004F
  0
SCALE
  5
10052
102
{ACAD_REACTORS
330
10051
102
}
330
10051
100
AcDbScale
 70
     0
300
1:1
140
1.0
141
1.0
290
     1
  0
SCALE
  5
10053
102
{ACAD_REACTORS
330
10051
102
}
330
10051
100
AcDbScale
 70
     0
300
1:2
140
1.0
141
2.0
290
     0
  0
SCALE
  5
10054
102
{ACAD_REACTORS
330
10051
102
}
330
10051
100
AcDbScale
 70
     0
300
1:4
140
1.0
141
4.0
290
     0
  0
SCALE
  5
10055
102
{ACAD_REACTORS
330
10051
102
}
330
10051
100
AcDbScale
 70
     0
300
1:5
140
1.0
141
5.0
290
     0
  0
SCALE
  5
10056
102
{ACAD_REACTORS
330
10051
102
}
330
10051
100
AcDbScale
 70
     0
300
1:8
140
1.0
141
8.0
290
     0
  0
SCALE
  5
10057
102
{ACAD_REACTORS
330
10051
102
}
330
10051
100
AcDbScale
 70
     0
300
1:10
140
1.0
141
10.0
290
     0
  0
SCALE
  5
10058
102
{ACAD_REACTORS
330
10051
102
}
330
10051
100
AcDbScale
 70
     0
300
1:16
140
1.0
141
16.0
290
     0
  0
SCALE
  5
10059
102
{ACAD_REACTORS
330
10051
102
}
330
10051
100
AcDbScale
 70
     0
300
1:20
140
1.0
141
20.0
290
     0
  0
SCALE
  5
1005A
102
{ACAD_REACTORS
330
10051
102
}
330
10051
100
AcDbScale
 70
     0
300
1:30
140
1.0
141
30.0
290
     0
  0
SCALE
  5
1005B
102
{ACAD_REACTORS
330
10051
102
}
330
10051
100
AcDbScale
 70
     0
300
1:40
140
1.0
141
40.0
290
     0
  0
SCALE
  5
1005C
102
{ACAD_REACTORS
330
10051
102
}
330
10051
100
AcDbScale
 70
     0
300
1:50
140
1.0
141
50.0
290
     0
  0
SCALE
  5
1005D
102
{ACAD_REACTORS
330
10051
102
}
330
10051
100
AcDbScale
 70
     0
300
1:100
140
1.0
141
100.0
290
     0
  0
SCALE
  5
1005E
102
{ACAD_REACTORS
330
10051
102
}
330
10051
100
AcDbScale
 70
     0
300
2:1
140
2.0
141
1.0
290
     0
  0
SCALE
  5
1005F
102
{ACAD_REACTORS
330
10051
102
}
330
10051
100
AcDbScale
 70
     0
300
4:1
140
4.0
141
1.0
290
     0
  0
SCALE
  5
10060
102
{ACAD_REACTORS
330
10051
102
}
330
10051
100
AcDbScale
 70
     0
300
8:1
140
8.0
141
1.0
290
     0
  0
SCALE
  5
10061
102
{ACAD_REACTORS
330
10051
102
}
330
10051
100
AcDbScale
 70
     0
300
10:1
140
10.0
141
1.0
290
     0
  0
SCALE
  5
10062
102
{ACAD_REACTORS
330
10051
102
}
330
10051
100
AcDbScale
 70
     0
300
100:1
140
100.0
141
1.0
290
     0
  0
SCALE
  5
10063
102
{ACAD_REACTORS
330
10051
102
}
330
10051
100
AcDbScale
 70
     0
300
1/128" = 1'-0"
140
0.0078125
141
12.0
290
     0
  0
SCALE
  5
10064
102
{ACAD_REACTORS
330
10051
102
}
330
10051
100
AcDbScale
 70
     0
300
1/64" = 1'-0"
140
0.015625
141
12.0
290
     0
  0
SCALE
  5
10065
102
{ACAD_REACTORS
330
10051
102
}
330
10051
100
AcDbScale
 70
     0
300
1/32" = 1'-0"
140
0.03125
141
12.0
290
     0
  0
SCALE
  5
10066
102
{ACAD_REACTORS
330
10051
102
}
330
10051
100
AcDbScale
 70
     0
300
1/16" = 1'-0"
140
0.0625
141
12.0
290
     0
  0
SCALE
  5
10067
102
{ACAD_REACTORS
330
10051
102
}
330
10051
100
AcDbScale
 70
     0
300
3/32" = 1'-0"
140
0.09375
141
12.0
290
     0
  0
SCALE
  5
10068
102
{ACAD_REACTORS
330
10051
102
}
330
10051
100
AcDbScale
 70
     0
300
1/8" = 1'-0"
140
0.125
141
12.0
290
     0
  0
SCALE
  5
10069
102
{ACAD_REACTORS
330
10051
102
}
330
10051
100
AcDbScale
 70
     0
300
3/16" = 1'-0"
140
0.1875
141
12.0
290
     0
  0
SCALE
  5
1006A
102
{ACAD_REACTORS
330
10051
102
}
330
10051
100
AcDbScale
 70
     0
300
1/4" = 1'-0"
140
0.25
141
12.0
290
     0
  0
SCALE
  5
1006B
102
{ACAD_REACTORS
330
10051
102
}
330
10051
100
AcDbScale
 70
     0
300
3/8" = 1'-0"
140
0.375
141
12.0
290
     0
  0
SCALE
  5
1006C
102
{ACAD_REACTORS
330
10051
102
}
330
10051
100
AcDbScale
 70
     0
300
1/2" = 1'-0"
140
0.5
141
12.0
290
     0
  0
SCALE
  5
1006D
102
{ACAD_REACTORS
330
10051
102
}
330
10051
100
AcDbScale
 70
     0
300
3/4" = 1'-0"
140
0.75
141
12.0
290
     0
  0
SCALE
  5
1006E
102
{ACAD_REACTORS
330
10051
102
}
330
10051
100
AcDbScale
 70
     0
300
1" = 1'-0"
140
1.0
141
12.0
290
     0
  0
SCALE
  5
1006F
102
{ACAD_REACTORS
330
10051
102
}
330
10051
100
AcDbScale
 70
     0
300
1-1/2" = 1'-0"
140
1.5
141
12.0
290
     0
  0
SCALE
  5
10070
102
{ACAD_REACTORS
330
10051
102
}
330
10051
100
AcDbScale
 70
     0
300
3" = 1'-0"
140
3.0
141
12.0
290
     0
  0
SCALE
  5
10071
102
{ACAD_REACTORS
330
10051
102
}
330
10051
100
AcDbScale
 70
     0
300
6" = 1'-0"
140
6.0
141
12.0
290
     0
  0
SCALE
  5
10072
102
{ACAD_REACTORS
330
10051
102
}
330
10051
100
AcDbScale
 70
     0
300
1'-0" = 1'-0"
140
12.0
141
12.0
290
     0
  0
TABLESTYLE
  5
10094
102
{ACAD_REACTORS
330
10093
102
}
102
{ACAD_XDICTIONARY
360
109CC
102
}
330
10093
100
AcDbTableStyle
  3
Standard
 70
     0
 71
     0
 40
0.06
 41
0.06
280
     0
281
     0
  7
STANDARD
140
0.18
170
     2
 62
     0
 63
   257
283
     0
 90
        4
 91
        0
  1

274
    -2
284
     1
 64
     0
275
    -2
285
     1
 65
     0
276
    -2
286
     1
 66
     0
277
    -2
287
     1
 67
     0
278
    -2
288
     1
 68
     0
279
    -2
289
     1
 69
     0
  7
STANDARD
140
0.25
170
     5
 62
     0
 63
   257
283
     0
 90
        4
 91
        0
  1

274
    -2
284
     1
 64
     0
275
    -2
285
     1
 65
     0
276
    -2
286
     1
 66
     0
277
    -2
287
     1
 67
     0
278
    -2
288
     1
 68
     0
279
    -2
289
     1
 69
     0
  7
STANDARD
140
0.18
170
     5
 62
     0
 63
   257
283
     0
 90
        4
 91
        0
  1

274
    -2
284
     1
 64
     0
275
    -2
285
     1
 65
     0
276
    -2
286
     1
 66
     0
277
    -2
287
     1
 67
     0
278
    -2
288
     1
 68
     0
279
    -2
289
     1
 69
     0
  0
VISUALSTYLE
  5
1007B
102
{ACAD_REACTORS
330
10076
102
}
330
10076
100
AcDbVisualStyle
  2
2dWireframe
 70
     4
177
     3
291
     0
 70
    58
 90
        0
176
     1
 90
        2
176
     1
 90
        0
176
     1
 90
        0
176
     1
 40
0.6
176
     1
 40
30.0
176
     1
 62
     7
420
 16777215
176
     1
 90
        1
176
     1
 90
        4
176
     1
 62
     7
176
     1
 62
   257
176
     1
 90
        1
176
     1
 90
        1
176
     1
 40
1.0
176
     1
 90
        0
176
     1
 62
   257
176
     1
 40
1.0
176
     1
 90
        1
176
     1
 90
        6
176
     1
 90
        2
176
     1
 62
     7
176
     1
 90
        5
176
     1
 90
        0
176
     1
 90
        0
176
     1
290
     0
176
     1
 90
        1
176
     1
 40
0.0
176
     1
 90
        0
176
     1
290
     1
176
     1
290
     1
176
     1
290
     0
176
     1
290
     0
176
     1
290
     0
176
     1
290
     0
176
     1
290
     0
176
     1
290
     0
176
     1
290
     0
176
     1
 90
       50
176
     1
 40
0.0
176
     1
 40
1.0
176
     1
 90
        0
176
     1
 62
    18
420
        0
176
     1
 90
       50
176
     1
 90
        3
176
     1
 62
     5
420
      255
176
     1
290
     0
176
     1
 90
       50
176
     1
 90
       50
176
     1
 90
       50
176
     1
290
     0
176
     1
 90
       50
176
     1
 62
   256
176
     0
 40
1.0
176
     0
 90
        2
176
     1
  1
strokes_ogs.tif
176
     1
290
     0
176
     1
 40
1.0
176
     1
 40
1.0
176
     1
  0
VISUALSTYLE
  5
1007E
102
{ACAD_REACTORS
330
10076
102
}
330
10076
100
AcDbVisualStyle
  2
Basic
 70
     7
177
     3
291
     1
 70
    58
 90
        1
176
     1
 90
        0
176
     1
 90
        1
176
     1
 90
        0
176
     1
 40
0.6
176
     1
 40
30.0
176
     1
 62
     7
420
 16777215
176
     1
 90
        0
176
     1
 90
        4
176
     1
 62
     7
176
     1
 62
   257
176
     1
 90
        1
176
     1
 90
        1
176
     1
 40
1.0
176
     1
 90
        8
176
     1
 62
     7
176
     1
 40
1.0
176
     1
 90
        1
176
     1
 90
        6
176
     1
 90
        2
176
     1
 62
     7
176
     1
 90
        5
176
     1
 90
        0
176
     1
 90
        0
176
     1
290
     0
176
     1
 90
        1
176
     1
 40
0.0
176
     1
 90
        0
176
     1
290
     0
176
     1
290
     1
176
     1
290
     1
176
     1
290
     0
176
     1
290
     0
176
     1
290
     0
176
     1
290
     0
176
     1
290
     0
176
     1
290
     0
176
     1
 90
       50
176
     1
 40
0.0
176
     1
 40
1.0
176
     1
 90
        0
176
     1
 62
    18
420
        0
176
     1
 90
       50
176
     1
 90
        3
176
     1
 62
     5
420
      255
176
     1
290
     0
176
     1
 90
       50
176
     1
 90
       50
176
     1
 90
       50
176
     1
290
     0
176
     1
 90
       50
176
     1
 62
   256
176
     0
 40
1.0
176
     0
 90
        2
176
     1
  1
strokes_ogs.tif
176
     1
290
     0
176
     1
 40
1.0
176
     1
 40
1.0
176
     1
  0
VISUALSTYLE
  5
10082
102
{ACAD_REACTORS
330
10076
102
}
330
10076
100
AcDbVisualStyle
  2
Brighten
 70
    12
177
     3
291
     1
 70
    58
 90
        2
176
     1
 90
        2
176
     1
 90
        0
176
     1
 90
        0
176
     1
 40
0.6
176
     1
 40
30.0
176
     1
 62
     7
420
 16777215
176
     1
 90
        1
176
     1
 90
        4
176
     1
 62
     7
176
     1
 62
   257
176
     1
 90
        1
176
     1
 90
        1
176
     1
 40
1.0
176
     1
 90
        8
176
     1
 62
     7
176
     1
 40
1.0
176
     1
 90
        1
176
     1
 90
        6
176
     1
 90
        2
176
     1
 62
     7
176
     1
 90
        5
176
     1
 90
        0
176
     1
 90
        0
176
     1
290
     0
176
     1
 90
        1
176
     1
 40
50.0
176
     1
 90
        0
176
     1
290
     0
176
     1
290
     1
176
     1
290
     1
176
     1
290
     0
176
     1
290
     0
176
     1
290
     0
176
     1
290
     0
176
     1
290
     0
176
     1
290
     0
176
     1
 90
       50
176
     1
 40
0.0
176
     1
 40
1.0
176
     1
 90
        0
176
     1
 62
    18
420
        0
176
     1
 90
       50
176
     1
 90
        3
176
     1
 62
     5
420
      255
176
     1
290
     0
176
     1
 90
       50
176
     1
 90
       50
176
     1
 90
       50
176
     1
290
     0
176
     1
 90
       50
176
     1
 62
   256
176
     0
 40
1.0
176
     0
 90
        2
176
     1
  1
strokes_ogs.tif
176
     1
290
     0
176
     1
 40
1.0
176
     1
 40
1.0
176
     1
  0
VISUALSTYLE
  5
10086
102
{ACAD_REACTORS
330
10076
102
}
330
10076
100
AcDbVisualStyle
  2
ColorChange
 70
    16
177
     3
291
     1
 70
    58
 90
        2
176
     1
 90
        2
176
     1
 90
        3
176
     1
 90
        0
176
     1
 40
0.6
176
     1
 40
30.0
176
     1
 62
     8
420
  8421504
176
     1
 90
        1
176
     1
 90
        4
176
     1
 62
     7
176
     1
 62
   257
176
     1
 90
        1
176
     1
 90
        1
176
     1
 40
1.0
176
     1
 90
        8
176
     1
 62
     8
420
  8421504
176
     1
 40
1.0
176
     1
 90
        1
176
     1
 90
        6
176
     1
 90
        2
176
     1
 62
     7
176
     1
 90
        5
176
     1
 90
        0
176
     1
 90
        0
176
     1
290
     0
176
     1
 90
        1
176
     1
 40
0.0
176
     1
 90
        0
176
     1
290
     0
176
     1
290
     1
176
     1
290
     1
176
     1
290
     0
176
     1
290
     0
176
     1
290
     0
176
     1
290
     0
176
     1
290
     0
176
     1
290
     0
176
     1
 90
       50
176
     1
 40
0.0
176
     1
 40
1.0
176
     1
 90
        0
176
     1
 62
    18
420
        0
176
     1
 90
       50
176
     1
 90
        3
176
     1
 62
     5
420
      255
176
     1
290
     0
176
     1
 90
       50
176
     1
 90
       50
176
     1
 90
       50
176
     1
290
     0
176
     1
 90
       50
176
     1
 62
   256
176
     0
 40
1.0
176
     0
 90
        2
176
     1
  1
strokes_ogs.tif
176
     1
290
     0
176
     1
 40
1.0
176
     1
 40
1.0
176
     1
  0
VISUALSTYLE
  5
10080
102
{ACAD_REACTORS
330
10076
102
}
330
10076
100
AcDbVisualStyle
  2
Conceptual
 70
     9
177
     3
291
     0
 70
    58
 90
        3
176
     1
 90
        2
176
     1
 90
        0
176
     1
 90
        0
176
     1
 40
0.6
176
     1
 40
30.0
176
     1
 62
     7
420
 16777215
176
     1
 90
        2
176
     1
 90
        2
176
     1
 62
     7
176
     1
 62
   257
176
     1
 90
        1
176
     1
 90
        1
176
     1
 40
179.0
176
     1
 90
        8
176
     1
 62
     7
176
     1
 40
1.0
176
     1
 90
        1
176
     1
 90
        6
176
     1
 90
        2
176
     1
 62
     7
176
     1
 90
        3
176
     1
 90
        0
176
     1
 90
        0
176
     1
290
     0
176
     1
 90
        1
176
     1
 40
0.0
176
     1
 90
        0
176
     1
290
     0
176
     1
290
     1
176
     1
290
     1
176
     1
290
     0
176
     1
290
     0
176
     1
290
     0
176
     1
290
     0
176
     1
290
     0
176
     1
290
     0
176
     1
 90
       50
176
     1
 40
0.0
176
     1
 40
1.0
176
     1
 90
        0
176
     1
 62
    18
420
        0
176
     1
 90
       50
176
     1
 90
        3
176
     1
 62
     5
420
      255
176
     1
290
     0
176
     1
 90
       50
176
     1
 90
       50
176
     1
 90
       50
176
     1
290
     0
176
     1
 90
       50
176
     1
 62
   256
176
     0
 40
1.0
176
     0
 90
        2
176
     1
  1
strokes_ogs.tif
176
     1
290
     0
176
     1
 40
1.0
176
     1
 40
1.0
176
     1
  0
VISUALSTYLE
  5
10081
102
{ACAD_REACTORS
330
10076
102
}
330
10076
100
AcDbVisualStyle
  2
Dim
 70
    11
177
     3
291
     1
 70
    58
 90
        2
176
     1
 90
        2
176
     1
 90
        0
176
     1
 90
        0
176
     1
 40
0.6
176
     1
 40
30.0
176
     1
 62
     7
420
 16777215
176
     1
 90
        1
176
     1
 90
        4
176
     1
 62
     7
176
     1
 62
   257
176
     1
 90
        1
176
     1
 90
        1
176
     1
 40
1.0
176
     1
 90
        8
176
     1
 62
     7
176
     1
 40
1.0
176
     1
 90
        1
176
     1
 90
        6
176
     1
 90
        2
176
     1
 62
     7
176
     1
 90
        5
176
     1
 90
        0
176
     1
 90
        0
176
     1
290
     0
176
     1
 90
        1
176
     1
 40
-50.0
176
     1
 90
        0
176
     1
290
     0
176
     1
290
     1
176
     1
290
     1
176
     1
290
     0
176
     1
290
     0
176
     1
290
     0
176
     1
290
     0
176
     1
290
     0
176
     1
290
     0
176
     1
 90
       50
176
     1
 40
0.0
176
     1
 40
1.0
176
     1
 90
        0
176
     1
 62
    18
420
        0
176
     1
 90
       50
176
     1
 90
        3
176
     1
 62
     5
420
      255
176
     1
290
     0
176
     1
 90
       50
176
     1
 90
       50
176
     1
 90
       50
176
     1
290
     0
176
     1
 90
       50
176
     1
 62
   256
176
     0
 40
1.0
176
     0
 90
        2
176
     1
  1
strokes_ogs.tif
176
     1
290
     0
176
     1
 40
1.0
176
     1
 40
1.0
176
     1
  0
VISUALSTYLE
  5
10089
102
{ACAD_REACTORS
330
10076
102
}
330
10076
100
AcDbVisualStyle
  2
EdgeColorOff
 70
    22
177
     3
291
     1
 70
    58
 90
        2
176
     0
 90
        2
176
     0
 90
        0
176
     0
 90
        0
176
     0
 40
0.6
176
     0
 40
30.0
176
     0
 62
     7
420
 16777215
176
     0
 90
        1
176
     0
 90
        4
176
     0
 62
     7
176
     0
 62
   257
176
     0
 90
        1
176
     0
 90
        1
176
     0
 40
1.0
176
     0
 90
        8
176
     2
 62
     7
176
     0
 40
1.0
176
     0
 90
        1
176
     0
 90
        6
176
     0
 90
        2
176
     0
 62
     7
176
     0
 90
        5
176
     0
 90
        0
176
     0
 90
        0
176
     0
290
     0
176
     0
 90
        1
176
     0
 40
0.0
176
     0
 90
        0
176
     0
290
     0
176
     0
290
     1
176
     0
290
     1
176
     0
290
     0
176
     0
290
     0
176
     0
290
     0
176
     0
290
     0
176
     0
290
     0
176
     0
290
     0
176
     0
 90
       50
176
     0
 40
0.0
176
     0
 40
1.0
176
     0
 90
        0
176
     0
 62
    18
420
        0
176
     0
 90
       50
176
     0
 90
        3
176
     0
 62
     5
420
      255
176
     0
290
     0
176
     0
 90
       50
176
     0
 90
       50
176
     0
 90
       50
176
     0
290
     0
176
     0
 90
       50
176
     0
 62
   256
176
     0
 40
1.0
176
     0
 90
        2
176
     0
  1
strokes_ogs.tif
176
     0
290
     0
176
     0
 40
1.0
176
     0
 40
1.0
176
     0
  0
VISUALSTYLE
  5
10085
102
{ACAD_REACTORS
330
10076
102
}
330
10076
100
AcDbVisualStyle
  2
Facepattern
 70
    15
177
     3
291
     1
 70
    58
 90
        2
176
     1
 90
        2
176
     1
 90
        0
176
     1
 90
        0
176
     1
 40
0.6
176
     1
 40
30.0
176
     1
 62
     7
420
 16777215
176
     1
 90
        1
176
     1
 90
        4
176
     1
 62
     7
176
     1
 62
   257
176
     1
 90
        1
176
     1
 90
        1
176
     1
 40
1.0
176
     1
 90
        8
176
     1
 62
     7
176
     1
 40
1.0
176
     1
 90
        1
176
     1
 90
        6
176
     1
 90
        2
176
     1
 62
     7
176
     1
 90
        5
176
     1
 90
        0
176
     1
 90
        0
176
     1
290
     0
176
     1
 90
        1
176
     1
 40
0.0
176
     1
 90
        0
176
     1
290
     0
176
     1
290
     1
176
     1
290
     1
176
     1
290
     0
176
     1
290
     0
176
     1
290
     0
176
     1
290
     0
176
     1
290
     0
176
     1
290
     0
176
     1
 90
       50
176
     1
 40
0.0
176
     1
 40
1.0
176
     1
 90
        0
176
     1
 62
    18
420
        0
176
     1
 90
       50
176
     1
 90
        3
176
     1
 62
     5
420
      255
176
     1
290
     0
176
     1
 90
       50
176
     1
 90
       50
176
     1
 90
       50
176
     1
290
     0
176
     1
 90
       50
176
     1
 62
   256
176
     0
 40
1.0
176
     0
 90
        2
176
     1
  1
strokes_ogs.tif
176
     1
290
     0
176
     1
 40
1.0
176
     1
 40
1.0
176
     1
  0
VISUALSTYLE
  5
10077
102
{ACAD_REACTORS
330
10076
102
}
330
10076
100
AcDbVisualStyle
  2
Flat
 70
     0
177
     3
291
     1
 70
    58
 90
        2
176
     1
 90
        1
176
     1
 90
        1
176
     1
 90
        2
176
     1
 40
0.6
176
     1
 40
30.0
176
     1
 62
     7
420
 16777215
176
     1
 90
        0
176
     1
 90
        0
176
     1
 62
     7
176
     1
 62
   257
176
     1
 90
        1
176
     1
 90
        1
176
     1
 40
1.0
176
     1
 90
        8
176
     1
 62
     7
176
     1
 40
1.0
176
     1
 90
        1
176
     1
 90
        6
176
     1
 90
        2
176
     1
 62
     7
176
     1
 90
        5
176
     1
 90
        0
176
     1
 90
        0
176
     1
290
     0
176
     1
 90
       13
176
     1
 40
0.0
176
     1
 90
        0
176
     1
290
     0
176
     1
290
     1
176
     1
290
     1
176
     1
290
     0
176
     1
290
     0
176
     1
290
     0
176
     1
290
     0
176
     1
290
     0
176
     1
290
     0
176
     1
 90
       50
176
     1
 40
0.0
176
     1
 40
1.0
176
     1
 90
        0
176
     1
 62
    18
420
        0
176
     1
 90
       50
176
     1
 90
        3
176
     1
 62
     5
420
      255
176
     1
290
     0
176
     1
 90
       50
176
     1
 90
       50
176
     1
 90
       50
176
     1
290
     0
176
     1
 90
       50
176
     1
 62
   256
176
     0
 40
1.0
176
     0
 90
        2
176
     1
  1
strokes_ogs.tif
176
     1
290
     0
176
     1
 40
1.0
176
     1
 40
1.0
176
     1
  0
VISUALSTYLE
  5
10078
102
{ACAD_REACTORS
330
10076
102
}
330
10076
100
AcDbVisualStyle
  2
FlatWithEdges
 70
     1
177
     3
291
     1
 70
    58
 90
        2
176
     1
 90
        1
176
     1
 90
        1
176
     1
 90
        2
176
     1
 40
0.6
176
     1
 40
30.0
176
     1
 62
     7
420
 16777215
176
     1
 90
        1
176
     1
 90
        0
176
     1
 62
     7
176
     1
 62
   257
176
     1
 90
        1
176
     1
 90
        1
176
     1
 40
1.0
176
     1
 90
        0
176
     1
 62
   257
176
     1
 40
1.0
176
     1
 90
        1
176
     1
 90
        6
176
     1
 90
        2
176
     1
 62
     7
176
     1
 90
        5
176
     1
 90
        0
176
     1
 90
        0
176
     1
290
     0
176
     1
 90
       13
176
     1
 40
0.0
176
     1
 90
        0
176
     1
290
     0
176
     1
290
     1
176
     1
290
     1
176
     1
290
     0
176
     1
290
     0
176
     1
290
     0
176
     1
290
     0
176
     1
290
     0
176
     1
290
     0
176
     1
 90
       50
176
     1
 40
0.0
176
     1
 40
1.0
176
     1
 90
        0
176
     1
 62
    18
420
        0
176
     1
 90
       50
176
     1
 90
        3
176
     1
 62
     5
420
      255
176
     1
290
     0
176
     1
 90
       50
176
     1
 90
       50
176
     1
 90
       50
176
     1
290
     0
176
     1
 90
       50
176
     1
 62
   256
176
     0
 40
1.0
176
     0
 90
        2
176
     1
  1
strokes_ogs.tif
176
     1
290
     0
176
     1
 40
1.0
176
     1
 40
1.0
176
     1
  0
VISUALSTYLE
  5
10079
102
{ACAD_REACTORS
330
10076
102
}
330
10076
100
AcDbVisualStyle
  2
Gouraud
 70
     2
177
     3
291
     1
 70
    58
 90
        2
176
     1
 90
        2
176
     1
 90
        1
176
     1
 90
        2
176
     1
 40
0.6
176
     1
 40
30.0
176
     1
 62
     7
420
 16777215
176
     1
 90
        0
176
     1
 90
        0
176
     1
 62
     7
176
     1
 62
   257
176
     1
 90
        1
176
     1
 90
        1
176
     1
 40
1.0
176
     1
 90
        0
176
     1
 62
     7
176
     1
 40
1.0
176
     1
 90
        1
176
     1
 90
        6
176
     1
 90
        2
176
     1
 62
     7
176
     1
 90
        5
176
     1
 90
        0
176
     1
 90
        0
176
     1
290
     0
176
     1
 90
       13
176
     1
 40
0.0
176
     1
 90
        0
176
     1
290
     0
176
     1
290
     1
176
     1
290
     1
176
     1
290
     0
176
     1
290
     0
176
     1
290
     0
176
     1
290
     0
176
     1
290
     0
176
     1
290
     0
176
     1
 90
       50
176
     1
 40
0.0
176
     1
 40
1.0
176
     1
 90
        0
176
     1
 62
    18
420
        0
176
     1
 90
       50
176
     1
 90
        3
176
     1
 62
     5
420
      255
176
     1
290
     0
176
     1
 90
       50
176
     1
 90
       50
176
     1
 90
       50
176
     1
290
     0
176
     1
 90
       50
176
     1
 62
   256
176
     0
 40
1.0
176
     0
 90
        2
176
     1
  1
strokes_ogs.tif
176
     1
290
     0
176
     1
 40
1.0
176
     1
 40
1.0
176
     1
  0
VISUALSTYLE
  5
1007A
102
{ACAD_REACTORS
330
10076
102
}
330
10076
100
AcDbVisualStyle
  2
GouraudWithEdges
 70
     3
177
     3
291
     1
 70
    58
 90
        2
176
     1
 90
        2
176
     1
 90
        1
176
     1
 90
        2
176
     1
 40
0.6
176
     1
 40
30.0
176
     1
 62
     7
420
 16777215
176
     1
 90
        1
176
     1
 90
        0
176
     1
 62
     7
176
     1
 62
   257
176
     1
 90
        1
176
     1
 90
        1
176
     1
 40
1.0
176
     1
 90
        0
176
     1
 62
   257
176
     1
 40
1.0
176
     1
 90
        1
176
     1
 90
        6
176
     1
 90
        2
176
     1
 62
     7
176
     1
 90
        5
176
     1
 90
        0
176
     1
 90
        0
176
     1
290
     0
176
     1
 90
       13
176
     1
 40
0.0
176
     1
 90
        0
176
     1
290
     0
176
     1
290
     1
176
     1
290
     1
176
     1
290
     0
176
     1
290
     0
176
     1
290
     0
176
     1
290
     0
176
     1
290
     0
176
     1
290
     0
176
     1
 90
       50
176
     1
 40
0.0
176
     1
 40
1.0
176
     1
 90
        0
176
     1
 62
    18
420
        0
176
     1
 90
       50
176
     1
 90
        3
176
     1
 62
     5
420
      255
176
     1
290
     0
176
     1
 90
       50
176
     1
 90
       50
176
     1
 90
       50
176
     1
290
     0
176
     1
 90
       50
176
     1
 62
   256
176
     0
 40
1.0
176
     0
 90
        2
176
     1
  1
strokes_ogs.tif
176
     1
290
     0
176
     1
 40
1.0
176
     1
 40
1.0
176
     1
  0
VISUALSTYLE
  5
1007D
102
{ACAD_REACTORS
330
10076
102
}
330
10076
100
AcDbVisualStyle
  2
Hidden
 70
     6
177
     3
291
     0
 70
    58
 90
        1
176
     1
 90
        2
176
     1
 90
        2
176
     1
 90
        0
176
     1
 40
0.6
176
     1
 40
30.0
176
     1
 62
     7
420
 16777215
176
     1
 90
        2
176
     1
 90
        2
176
     1
 62
     7
176
     1
 62
   257
176
     1
 90
        2
176
     1
 90
        1
176
     1
 40
40.0
176
     1
 90
        0
176
     1
 62
   257
176
     1
 40
1.0
176
     1
 90
        1
176
     1
 90
        6
176
     1
 90
        2
176
     1
 62
     7
176
     1
 90
        3
176
     1
 90
        0
176
     1
 90
        0
176
     1
290
     0
176
     1
 90
        1
176
     1
 40
0.0
176
     1
 90
        0
176
     1
290
     0
176
     1
290
     1
176
     1
290
     1
176
     1
290
     0
176
     1
290
     0
176
     1
290
     0
176
     1
290
     0
176
     1
290
     0
176
     1
290
     0
176
     1
 90
       50
176
     1
 40
0.0
176
     1
 40
1.0
176
     1
 90
        0
176
     1
 62
    18
420
        0
176
     1
 90
       50
176
     1
 90
        3
176
     1
 62
     5
420
      255
176
     1
290
     0
176
     1
 90
       50
176
     1
 90
       50
176
     1
 90
       50
176
     1
290
     0
176
     1
 90
       50
176
     1
 62
   256
176
     0
 40
1.0
176
     0
 90
        2
176
     1
  1
strokes_ogs.tif
176
     1
290
     0
176
     1
 40
1.0
176
     1
 40
1.0
176
     1
  0
VISUALSTYLE
  5
10087
102
{ACAD_REACTORS
330
10076
102
}
330
10076
100
AcDbVisualStyle
  2
JitterOff
 70
    20
177
     3
291
     1
 70
    58
 90
        2
176
     0
 90
        2
176
     0
 90
        0
176
     0
 90
        0
176
     0
 40
0.6
176
     0
 40
30.0
176
     0
 62
     7
420
 16777215
176
     0
 90
        1
176
     0
 90
        4
176
     0
 62
     7
176
     0
 62
   257
176
     0
 90
        1
176
     0
 90
        1
176
     0
 40
1.0
176
     0
 90
       10
176
     2
 62
     7
176
     0
 40
1.0
176
     0
 90
        1
176
     0
 90
        6
176
     0
 90
        2
176
     0
 62
     7
176
     0
 90
        5
176
     0
 90
        0
176
     0
 90
        0
176
     0
290
     0
176
     0
 90
        1
176
     0
 40
0.0
176
     0
 90
        0
176
     0
290
     0
176
     0
290
     1
176
     0
290
     1
176
     0
290
     0
176
     0
290
     0
176
     0
290
     0
176
     0
290
     0
176
     0
290
     0
176
     0
290
     0
176
     0
 90
       50
176
     0
 40
0.0
176
     0
 40
1.0
176
     0
 90
        0
176
     0
 62
    18
420
        0
176
     0
 90
       50
176
     0
 90
        3
176
     0
 62
     5
420
      255
176
     0
290
     0
176
     0
 90
       50
176
     0
 90
       50
176
     0
 90
       50
176
     0
290
     0
176
     0
 90
       50
176
     0
 62
   256
176
     0
 40
1.0
176
     0
 90
        2
176
     0
  1
strokes_ogs.tif
176
     0
290
     0
176
     0
 40
1.0
176
     0
 40
1.0
176
     0
  0
VISUALSTYLE
  5
10084
102
{ACAD_REACTORS
330
10076
102
}
330
10076
100
AcDbVisualStyle
  2
Linepattern
 70
    14
177
     3
291
     1
 70
    58
 90
        2
176
     1
 90
        2
176
     1
 90
        0
176
     1
 90
        0
176
     1
 40
0.6
176
     1
 40
30.0
176
     1
 62
     7
420
 16777215
176
     1
 90
        1
176
     1
 90
        4
176
     1
 62
     7
176
     1
 62
   257
176
     1
 90
        7
176
     1
 90
        7
176
     1
 40
1.0
176
     1
 90
        8
176
     1
 62
     7
176
     1
 40
1.0
176
     1
 90
        1
176
     1
 90
        6
176
     1
 90
        2
176
     1
 62
     7
176
     1
 90
        5
176
     1
 90
        0
176
     1
 90
        0
176
     1
290
     0
176
     1
 90
        1
176
     1
 40
0.0
176
     1
 90
        0
176
     1
290
     0
176
     1
290
     1
176
     1
290
     1
176
     1
290
     0
176
     1
290
     0
176
     1
290
     0
176
     1
290
     0
176
     1
290
     0
176
     1
290
     0
176
     1
 90
       50
176
     1
 40
0.0
176
     1
 40
1.0
176
     1
 90
        0
176
     1
 62
    18
420
        0
176
     1
 90
       50
176
     1
 90
        3
176
     1
 62
     5
420
      255
176
     1
290
     0
176
     1
 90
       50
176
     1
 90
       50
176
     1
 90
       50
176
     1
290
     0
176
     1
 90
       50
176
     1
 62
   256
176
     0
 40
1.0
176
     0
 90
        2
176
     1
  1
strokes_ogs.tif
176
     1
290
     0
176
     1
 40
1.0
176
     1
 40
1.0
176
     1
  0
VISUALSTYLE
  5
10088
102
{ACAD_REACTORS
330
10076
102
}
330
10076
100
AcDbVisualStyle
  2
OverhangOff
 70
    21
177
     3
291
     1
 70
    58
 90
        2
176
     0
 90
        2
176
     0
 90
        0
176
     0
 90
        0
176
     0
 40
0.6
176
     0
 40
30.0
176
     0
 62
     7
420
 16777215
176
     0
 90
        1
176
     0
 90
        4
176
     0
 62
     7
176
     0
 62
   257
176
     0
 90
        1
176
     0
 90
        1
176
     0
 40
1.0
176
     0
 90
        9
176
     2
 62
     7
176
     0
 40
1.0
176
     0
 90
        1
176
     0
 90
        6
176
     0
 90
        2
176
     0
 62
     7
176
     0
 90
        5
176
     0
 90
        0
176
     0
 90
        0
176
     0
290
     0
176
     0
 90
        1
176
     0
 40
0.0
176
     0
 90
        0
176
     0
290
     0
176
     0
290
     1
176
     0
290
     1
176
     0
290
     0
176
     0
290
     0
176
     0
290
     0
176
     0
290
     0
176
     0
290
     0
176
     0
290
     0
176
     0
 90
       50
176
     0
 40
0.0
176
     0
 40
1.0
176
     0
 90
        0
176
     0
 62
    18
420
        0
176
     0
 90
       50
176
     0
 90
        3
176
     0
 62
     5
420
      255
176
     0
290
     0
176
     0
 90
       50
176
     0
 90
       50
176
     0
 90
       50
176
     0
290
     0
176
     0
 90
       50
176
     0
 62
   256
176
     0
 40
1.0
176
     0
 90
        2
176
     0
  1
strokes_ogs.tif
176
     0
290
     0
176
     0
 40
1.0
176
     0
 40
1.0
176
     0
  0
VISUALSTYLE
  5
1007F
102
{ACAD_REACTORS
330
10076
102
}
330
10076
100
AcDbVisualStyle
  2
Realistic
 70
     8
177
     3
291
     0
 70
    58
 90
        2
176
     1
 90
        3
176
     1
 90
        0
176
     1
 90
        2
176
     1
 40
0.6
176
     1
 40
30.0
176
     1
 62
     7
420
 16777215
176
     1
 90
        0
176
     1
 90
        0
176
     1
 62
     7
176
     1
 62
   257
176
     1
 90
        1
176
     1
 90
        1
176
     1
 40
1.0
176
     1
 90
        8
176
     1
 62
   257
176
     1
 40
1.0
176
     1
 90
        1
176
     1
 90
        6
176
     1
 90
        2
176
     1
 62
     7
176
     1
 90
        3
176
     1
 90
        0
176
     1
 90
        0
176
     1
290
     0
176
     1
 90
       13
176
     1
 40
0.0
176
     1
 90
        0
176
     1
290
     0
176
     1
290
     1
176
     1
290
     1
176
     1
290
     0
176
     1
290
     0
176
     1
290
     0
176
     1
290
     0
176
     1
290
     0
176
     1
290
     0
176
     1
 90
       50
176
     1
 40
0.0
176
     1
 40
1.0
176
     1
 90
        0
176
     1
 62
    18
420
        0
176
     1
 90
       50
176
     1
 90
        3
176
     1
 62
     5
420
      255
176
     1
290
     0
176
     1
 90
       50
176
     1
 90
       50
176
     1
 90
       50
176
     1
290
     0
176
     1
 90
       50
176
     1
 62
   256
176
     0
 40
1.0
176
     0
 90
        2
176
     1
  1
strokes_ogs.tif
176
     1
290
     0
176
     1
 40
1.0
176
     1
 40
1.0
176
     1
  0
VISUALSTYLE
  5
1008E
102
{ACAD_REACTORS
330
10076
102
}
330
10076
100
AcDbVisualStyle
  2
Shaded
 70
    27
177
     3
291
     0
 70
    58
 90
        2
176
     1
 90
        2
176
     1
 90
        1
176
     1
 90
        2
176
     1
 40
0.6
176
     1
 40
30.0
176
     1
 62
     7
420
 16777215
176
     1
 90
        0
176
     1
 90
        4
176
     1
 62
     7
176
     1
 62
   257
176
     1
 90
        1
176
     1
 90
        1
176
     1
 40
1.0
176
     1
 90
        8
176
     1
 62
   257
176
     1
 40
1.0
176
     1
 90
        1
176
     1
 90
        6
176
     1
 90
        2
176
     1
 62
     8
420
  7895160
176
     1
 90
        3
176
     1
 90
        0
176
     1
 90
        0
176
     1
290
     0
176
     1
 90
        5
176
     1
 40
0.0
176
     1
 90
        0
176
     1
290
     0
176
     1
290
     1
176
     1
290
     1
176
     1
290
     0
176
     1
290
     0
176
     1
290
     0
176
     1
290
     0
176
     1
290
     0
176
     1
290
     0
176
     1
 90
       50
176
     1
 40
0.0
176
     1
 40
1.0
176
     1
 90
        0
176
     1
 62
    18
420
        0
176
     1
 90
       50
176
     1
 90
        3
176
     1
 62
     5
420
      255
176
     1
290
     0
176
     1
 90
       50
176
     1
 90
       50
176
     1
 90
       50
176
     1
290
     0
176
     1
 90
       50
176
     1
 62
   256
176
     0
 40
1.0
176
     0
 90
        2
176
     1
  1
strokes_ogs.tif
176
     1
290
     0
176
     1
 40
1.0
176
     1
 40
1.0
176
     1
  0
VISUALSTYLE
  5
1008D
102
{ACAD_REACTORS
330
10076
102
}
330
10076
100
AcDbVisualStyle
  2
Shaded with edges
 70
    26
177
     3
291
     0
 70
    58
 90
        2
176
     1
 90
        2
176
     1
 90
        1
176
     1
 90
        2
176
     1
 40
0.6
176
     1
 40
30.0
176
     1
 62
     7
420
 16777215
176
     1
 90
        1
176
     1
 90
       10
176
     1
 62
     7
176
     1
 62
   257
176
     1
 90
        2
176
     1
 90
        1
176
     1
 40
1.0
176
     1
 90
        8
176
     1
 62
   257
176
     1
 40
1.0
176
     1
 90
        1
176
     1
 90
        6
176
     1
 90
        2
176
     1
 62
     7
176
     1
 90
        3
176
     1
 90
        0
176
     1
 90
        0
176
     1
290
     0
176
     1
 90
        5
176
     1
 40
0.0
176
     1
 90
        0
176
     1
290
     0
176
     1
290
     1
176
     1
290
     1
176
     1
290
     0
176
     1
290
     0
176
     1
290
     0
176
     1
290
     0
176
     1
290
     0
176
     1
290
     0
176
     1
 90
       50
176
     1
 40
0.0
176
     1
 40
1.0
176
     1
 90
        0
176
     1
 62
    18
420
        0
176
     1
 90
       50
176
     1
 90
        3
176
     1
 62
     5
420
      255
176
     1
290
     0
176
     1
 90
       50
176
     1
 90
       50
176
     1
 90
       50
176
     1
290
     0
176
     1
 90
       50
176
     1
 62
   256
176
     0
 40
1.0
176
     0
 90
        2
176
     1
  1
strokes_ogs.tif
176
     1
290
     0
176
     1
 40
1.0
176
     1
 40
1.0
176
     1
  0
VISUALSTYLE
  5
1008A
102
{ACAD_REACTORS
330
10076
102
}
330
10076
100
AcDbVisualStyle
  2
Shades of Gray
 70
    23
177
     3
291
     0
 70
    58
 90
        2
176
     1
 90
        2
176
     1
 90
        3
176
     1
 90
        0
176
     1
 40
0.6
176
     1
 40
30.0
176
     1
 62
     7
420
 16777215
176
     1
 90
        2
176
     1
 90
        2
176
     1
 62
     7
176
     1
 62
     7
176
     1
 90
        1
176
     1
 90
        1
176
     1
 40
40.0
176
     1
 90
        8
176
     1
 62
     7
176
     1
 40
1.0
176
     1
 90
        1
176
     1
 90
        6
176
     1
 90
        2
176
     1
 62
     7
176
     1
 90
        3
176
     1
 90
        0
176
     1
 90
        0
176
     1
290
     0
176
     1
 90
        1
176
     1
 40
0.0
176
     1
 90
        0
176
     1
290
     0
176
     1
290
     1
176
     1
290
     1
176
     1
290
     0
176
     1
290
     0
176
     1
290
     0
176
     1
290
     0
176
     1
290
     0
176
     1
290
     0
176
     1
 90
       50
176
     1
 40
0.0
176
     1
 40
1.0
176
     1
 90
        0
176
     1
 62
    18
420
        0
176
     1
 90
       50
176
     1
 90
        3
176
     1
 62
     5
420
      255
176
     1
290
     0
176
     1
 90
       50
176
     1
 90
       50
176
     1
 90
       50
176
     1
290
     0
176
     1
 90
       50
176
     1
 62
   256
176
     0
 40
1.0
176
     0
 90
        2
176
     1
  1
strokes_ogs.tif
176
     1
290
     0
176
     1
 40
1.0
176
     1
 40
1.0
176
     1
  0
VISUALSTYLE
  5
1008B
102
{ACAD_REACTORS
330
10076
102
}
330
10076
100
AcDbVisualStyle
  2
Sketchy
 70
    24
177
     3
291
     0
 70
    58
 90
        1
176
     1
 90
        2
176
     1
 90
        2
176
     1
 90
        0
176
     1
 40
0.6
176
     1
 40
30.0
176
     1
 62
     7
420
 16777215
176
     1
 90
        2
176
     1
 90
        2
176
     1
 62
     7
176
     1
 62
     7
176
     1
 90
        1
176
     1
 90
        1
176
     1
 40
40.0
176
     1
 90
       11
176
     1
 62
     7
176
     1
 40
1.0
176
     1
 90
        1
176
     1
 90
        6
176
     1
 90
        2
176
     1
 62
     7
176
     1
 90
        6
176
     1
 90
        0
176
     1
 90
        0
176
     1
290
     0
176
     1
 90
        1
176
     1
 40
0.0
176
     1
 90
        0
176
     1
290
     0
176
     1
290
     1
176
     1
290
     1
176
     1
290
     0
176
     1
290
     0
176
     1
290
     0
176
     1
290
     0
176
     1
290
     0
176
     1
290
     0
176
     1
 90
       50
176
     1
 40
0.0
176
     1
 40
1.0
176
     1
 90
        0
176
     1
 62
    18
420
        0
176
     1
 90
       50
176
     1
 90
        3
176
     1
 62
     5
420
      255
176
     1
290
     0
176
     1
 90
       50
176
     1
 90
       50
176
     1
 90
       50
176
     1
290
     0
176
     1
 90
       50
176
     1
 62
   256
176
     0
 40
1.0
176
     0
 90
        2
176
     1
  1
strokes_ogs.tif
176
     1
290
     0
176
     1
 40
1.0
176
     1
 40
1.0
176
     1
  0
VISUALSTYLE
  5
10083
102
{ACAD_REACTORS
330
10076
102
}
330
10076
100
AcDbVisualStyle
  2
Thicken
 70
    13
177
     3
291
     1
 70
    58
 90
        2
176
     1
 90
        2
176
     1
 90
        0
176
     1
 90
        0
176
     1
 40
0.6
176
     1
 40
30.0
176
     1
 62
     7
420
 16777215
176
     1
 90
        1
176
     1
 90
        4
176
     1
 62
     7
176
     1
 62
   257
176
     1
 90
        1
176
     1
 90
        1
176
     1
 40
1.0
176
     1
 90
       12
176
     1
 62
     7
176
     1
 40
1.0
176
     1
 90
        1
176
     1
 90
        6
176
     1
 90
        2
176
     1
 62
     7
176
     1
 90
        5
176
     1
 90
        0
176
     1
 90
        0
176
     1
290
     0
176
     1
 90
        1
176
     1
 40
0.0
176
     1
 90
        0
176
     1
290
     0
176
     1
290
     1
176
     1
290
     1
176
     1
290
     0
176
     1
290
     0
176
     1
290
     0
176
     1
290
     0
176
     1
290
     0
176
     1
290
     0
176
     1
 90
       50
176
     1
 40
0.0
176
     1
 40
1.0
176
     1
 90
        0
176
     1
 62
    18
420
        0
176
     1
 90
       50
176
     1
 90
        3
176
     1
 62
     5
420
      255
176
     1
290
     0
176
     1
 90
       50
176
     1
 90
       50
176
     1
 90
       50
176
     1
290
     0
176
     1
 90
       50
176
     1
 62
   256
176
     0
 40
1.0
176
     0
 90
        2
176
     1
  1
strokes_ogs.tif
176
     1
290
     0
176
     1
 40
1.0
176
     1
 40
1.0
176
     1
  0
VISUALSTYLE
  5
1007C
102
{ACAD_REACTORS
330
10076
102
}
330
10076
100
AcDbVisualStyle
  2
Wireframe
 70
     5
177
     3
291
     0
 70
    58
 90
        0
176
     1
 90
        2
176
     1
 90
        0
176
     1
 90
        0
176
     1
 40
0.6
176
     1
 40
30.0
176
     1
 62
     7
420
 16777215
176
     1
 90
        1
176
     1
 90
        4
176
     1
 62
     7
176
     1
 62
   257
176
     1
 90
        1
176
     1
 90
        1
176
     1
 40
1.0
176
     1
 90
        0
176
     1
 62
   257
176
     1
 40
1.0
176
     1
 90
        1
176
     1
 90
        6
176
     1
 90
        2
176
     1
 62
     7
176
     1
 90
        3
176
     1
 90
        0
176
     1
 90
        0
176
     1
290
     0
176
     1
 90
        1
176
     1
 40
0.0
176
     1
 90
        0
176
     1
290
     0
176
     1
290
     1
176
     1
290
     1
176
     1
290
     0
176
     1
290
     0
176
     1
290
     0
176
     1
290
     0
176
     1
290
     0
176
     1
290
     0
176
     1
 90
       50
176
     1
 40
0.0
176
     1
 40
1.0
176
     1
 90
        0
176
     1
 62
    18
420
        0
176
     1
 90
       50
176
     1
 90
        3
176
     1
 62
     5
420
      255
176
     1
290
     0
176
     1
 90
       50
176
     1
 90
       50
176
     1
 90
       50
176
     1
290
     0
176
     1
 90
       50
176
     1
 62
   256
176
     0
 40
1.0
176
     0
 90
        2
176
     1
  1
strokes_ogs.tif
176
     1
290
     0
176
     1
 40
1.0
176
     1
 40
1.0
176
     1
  0
VISUALSTYLE
  5
1008C
102
{ACAD_REACTORS
330
10076
102
}
330
10076
100
AcDbVisualStyle
  2
X-Ray
 70
    25
177
     3
291
     0
 70
    58
 90
        2
176
     1
 90
        2
176
     1
 90
        1
176
     1
 90
        1
176
     1
 40
0.5
176
     1
 40
30.0
176
     1
 62
     7
420
 16777215
176
     1
 90
        1
176
     1
 90
        0
176
     1
 62
     7
176
     1
 62
   257
176
     1
 90
        1
176
     1
 90
        1
176
     1
 40
1.0
176
     1
 90
        8
176
     1
 62
     7
176
     1
 40
1.0
176
     1
 90
        1
176
     1
 90
        6
176
     1
 90
        2
176
     1
 62
     7
176
     1
 90
        3
176
     1
 90
        0
176
     1
 90
        0
176
     1
290
     0
176
     1
 90
       13
176
     1
 40
0.0
176
     1
 90
        0
176
     1
290
     0
176
     1
290
     1
176
     1
290
     1
176
     1
290
     0
176
     1
290
     0
176
     1
290
     0
176
     1
290
     0
176
     1
290
     0
176
     1
290
     0
176
     1
 90
       50
176
     1
 40
0.0
176
     1
 40
1.0
176
     1
 90
        0
176
     1
 62
    18
420
        0
176
     1
 90
       50
176
     1
 90
        3
176
     1
 62
     5
420
      255
176
     1
290
     0
176
     1
 90
       50
176
     1
 90
       50
176
     1
 90
       50
176
     1
290
     0
176
     1
 90
       50
176
     1
 62
   256
176
     0
 40
1.0
176
     0
 90
        2
176
     1
  1
strokes_ogs.tif
176
     1
290
     0
176
     1
 40
1.0
176
     1
 40
1.0
176
     1
  0
DICTIONARYVAR
  5
10098
102
{ACAD_REACTORS
330
10097
102
}
330
10097
100
DictionaryVariables
280
     0
  1
1:1
  0
DICTIONARYVAR
  5
1009A
102
{ACAD_REACTORS
330
10097
102
}
330
10097
100
DictionaryVariables
280
     0
  1
Standard
  0
DICTIONARYVAR
  5
10099
102
{ACAD_REACTORS
330
10097
102
}
330
10097
100
DictionaryVariables
280
     0
  1
Standard
  0
DICTIONARYVAR
  5
1009B
102
{ACAD_REACTORS
330
10097
102
}
330
10097
100
DictionaryVariables
280
     0
  1
0
  0
DICTIONARY
  5
109CC
330
10094
100
AcDbDictionary
280
     1
281
     1
  3
ACAD_ROUNDTRIP_2008_TABLESTYLE_CELLSTYLEMAP
360
109CD
  0
CELLSTYLEMAP
  5
109CD
102
{ACAD_REACTORS
330
109CC
102
}
330
109CC
100
AcDbCellStyleMap
 90
        3
300
CELLSTYLE
  1
TABLEFORMAT_BEGIN
 90
        5
170
     1
 91
        0
 92
    32768
 62
   257
 93
        1
300
CONTENTFORMAT
  1
CONTENTFORMAT_BEGIN
 90
        0
 91
        0
 92
        4
 93
        0
300

 40
0.0
140
1.0
 94
        5
 62
     0
340
11
144
0.25
309
CONTENTFORMAT_END
171
     1
301
MARGIN
  1
CELLMARGIN_BEGIN
 40
0.06
 40
0.06
 40
0.06
 40
0.06
 40
0.06
 40
0.06
309
CELLMARGIN_END
 94
        6
 95
        1
302
GRIDFORMAT
  1
GRIDFORMAT_BEGIN
 90
        0
 91
        1
 62
     0
 92
       -2
340
14
 93
        0
 40
0.045
309
GRIDFORMAT_END
 95
        2
302
GRIDFORMAT
  1
GRIDFORMAT_BEGIN
 90
        0
 91
        1
 62
     0
 92
       -2
340
14
 93
        0
 40
0.045
309
GRIDFORMAT_END
 95
        4
302
GRIDFORMAT
  1
GRIDFORMAT_BEGIN
 90
        0
 91
        1
 62
     0
 92
       -2
340
14
 93
        0
 40
0.045
309
GRIDFORMAT_END
 95
        8
302
GRIDFORMAT
  1
GRIDFORMAT_BEGIN
 90
        0
 91
        1
 62
     0
 92
       -2
340
14
 93
        0
 40
0.045
309
GRIDFORMAT_END
 95
       16
302
GRIDFORMAT
  1
GRIDFORMAT_BEGIN
 90
        0
 91
        1
 62
     0
 92
       -2
340
14
 93
        0
 40
0.045
309
GRIDFORMAT_END
 95
       32
302
GRIDFORMAT
  1
GRIDFORMAT_BEGIN
 90
        0
 91
        1
 62
     0
 92
       -2
340
14
 93
        0
 40
0.045
309
GRIDFORMAT_END
309
TABLEFORMAT_END
  1
CELLSTYLE_BEGIN
 90
        1
 91
        1
300
_TITLE
309
CELLSTYLE_END
300
CELLSTYLE
  1
TABLEFORMAT_BEGIN
 90
        5
170
     1
 91
        0
 92
        0
 62
   257
 93
        1
300
CONTENTFORMAT
  1
CONTENTFORMAT_BEGIN
 90
        0
 91
        0
 92
        4
 93
        0
300

 40
0.0
140
1.0
 94
        5
 62
     0
340
11
144
0.18
309
CONTENTFORMAT_END
171
     1
301
MARGIN
  1
CELLMARGIN_BEGIN
 40
0.06
 40
0.06
 40
0.06
 40
0.06
 40
0.06
 40
0.06
309
CELLMARGIN_END
 94
        6
 95
        1
302
GRIDFORMAT
  1
GRIDFORMAT_BEGIN
 90
        0
 91
        1
 62
     0
 92
       -2
340
14
 93
        0
 40
0.045
309
GRIDFORMAT_END
 95
        2
302
GRIDFORMAT
  1
GRIDFORMAT_BEGIN
 90
        0
 91
        1
 62
     0
 92
       -2
340
14
 93
        0
 40
0.045
309
GRIDFORMAT_END
 95
        4
302
GRIDFORMAT
  1
GRIDFORMAT_BEGIN
 90
        0
 91
        1
 62
     0
 92
       -2
340
14
 93
        0
 40
0.045
309
GRIDFORMAT_END
 95
        8
302
GRIDFORMAT
  1
GRIDFORMAT_BEGIN
 90
        0
 91
        1
 62
     0
 92
       -2
340
14
 93
        0
 40
0.045
309
GRIDFORMAT_END
 95
       16
302
GRIDFORMAT
  1
GRIDFORMAT_BEGIN
 90
        0
 91
        1
 62
     0
 92
       -2
340
14
 93
        0
 40
0.045
309
GRIDFORMAT_END
 95
       32
302
GRIDFORMAT
  1
GRIDFORMAT_BEGIN
 90
        0
 91
        1
 62
     0
 92
       -2
340
14
 93
        0
 40
0.045
309
GRIDFORMAT_END
309
TABLEFORMAT_END
  1
CELLSTYLE_BEGIN
 90
        2
 91
        1
300
_HEADER
309
CELLSTYLE_END
300
CELLSTYLE
  1
TABLEFORMAT_BEGIN
 90
        5
170
     1
 91
        0
 92
        0
 62
   257
 93
        1
300
CONTENTFORMAT
  1
CONTENTFORMAT_BEGIN
 90
        0
 91
        0
 92
        4
 93
        0
300

 40
0.0
140
1.0
 94
        2
 62
     0
340
11
144
0.18
309
CONTENTFORMAT_END
171
     1
301
MARGIN
  1
CELLMARGIN_BEGIN
 40
0.06
 40
0.06
 40
0.06
 40
0.06
 40
0.06
 40
0.06
309
CELLMARGIN_END
 94
        6
 95
        1
302
GRIDFORMAT
  1
GRIDFORMAT_BEGIN
 90
        0
 91
        1
 62
     0
 92
       -2
340
14
 93
        0
 40
0.045
309
GRIDFORMAT_END
 95
        2
302
GRIDFORMAT
  1
GRIDFORMAT_BEGIN
 90
        0
 91
        1
 62
     0
 92
       -2
340
14
 93
        0
 40
0.045
309
GRIDFORMAT_END
 95
        4
302
GRIDFORMAT
  1
GRIDFORMAT_BEGIN
 90
        0
 91
        1
 62
     0
 92
       -2
340
14
 93
        0
 40
0.045
309
GRIDFORMAT_END
 95
        8
302
GRIDFORMAT
  1
GRIDFORMAT_BEGIN
 90
        0
 91
        1
 62
     0
 92
       -2
340
14
 93
        0
 40
0.045
309
GRIDFORMAT_END
 95
       16
302
GRIDFORMAT
  1
GRIDFORMAT_BEGIN
 90
        0
 91
        1
 62
     0
 92
       -2
340
14
 93
        0
 40
0.045
309
GRIDFORMAT_END
 95
       32
302
GRIDFORMAT
  1
GRIDFORMAT_BEGIN
 90
        0
 91
        1
 62
     0
 92
       -2
340
14
 93
        0
 40
0.045
309
GRIDFORMAT_END
309
TABLEFORMAT_END
  1
CELLSTYLE_BEGIN
 90
        3
 91
        2
300
_DATA
309
CELLSTYLE_END
  0
ENDSEC
  0
EOF
